<svg width="29" height="28" viewBox="0 0 29 28" fill="none" xmlns="http://www.w3.org/2000/svg">
<g id="vuesax/bold/setting-4">
<g id="Group">
<path id="Vector" d="M23.8 9.58018H18.22C17.83 9.58018 17.52 9.27018 17.52 8.88018C17.52 8.49018 17.83 8.18018 18.22 8.18018H23.8C24.19 8.18018 24.5 8.49018 24.5 8.88018C24.5 9.27018 24.19 9.58018 23.8 9.58018Z" fill="#BEC7CD"/>
<path id="Vector_2" d="M8.92 9.58018H5.2C4.81 9.58018 4.5 9.27018 4.5 8.88018C4.5 8.49018 4.81 8.18018 5.2 8.18018H8.92C9.31 8.18018 9.62 8.49018 9.62 8.88018C9.62 9.27018 9.3 9.58018 8.92 9.58018Z" fill="#BEC7CD"/>
<path id="Vector_3" d="M12.6399 12.8302C14.8215 12.8302 16.5899 11.0617 16.5899 8.88018C16.5899 6.69865 14.8215 4.93018 12.6399 4.93018C10.4584 4.93018 8.68994 6.69865 8.68994 8.88018C8.68994 11.0617 10.4584 12.8302 12.6399 12.8302Z" fill="#BEC7CD"/>
<path id="Vector_4" d="M23.7999 19.8102H20.0799C19.6899 19.8102 19.3799 19.5002 19.3799 19.1102C19.3799 18.7202 19.6899 18.4102 20.0799 18.4102H23.7999C24.1899 18.4102 24.4999 18.7202 24.4999 19.1102C24.4999 19.5002 24.1899 19.8102 23.7999 19.8102Z" fill="#BEC7CD"/>
<path id="Vector_5" d="M10.78 19.8102H5.2C4.81 19.8102 4.5 19.5002 4.5 19.1102C4.5 18.7202 4.81 18.4102 5.2 18.4102H10.78C11.17 18.4102 11.48 18.7202 11.48 19.1102C11.48 19.5002 11.16 19.8102 10.78 19.8102Z" fill="#BEC7CD"/>
<path id="Vector_6" d="M16.3599 23.0699C18.5414 23.0699 20.3099 21.3014 20.3099 19.1199C20.3099 16.9384 18.5414 15.1699 16.3599 15.1699C14.1784 15.1699 12.4099 16.9384 12.4099 19.1199C12.4099 21.3014 14.1784 23.0699 16.3599 23.0699Z" fill="#BEC7CD"/>
</g>
</g>
</svg>
