<svg width="40" height="40" viewBox="0 0 40 40" fill="none" xmlns="http://www.w3.org/2000/svg">
<g id="Group 573">
<mask id="mask0_504_42306" style="mask-type:alpha" maskUnits="userSpaceOnUse" x="0" y="0" width="40" height="40">
<circle id="Ellipse 12" cx="20" cy="20" r="20" fill="#D9D9D9"/>
</mask>
<g mask="url(#mask0_504_42306)">
<g id="Group 574">
<rect id="Rectangle 226" x="-3" y="-2" width="45" height="44" fill="#DACDE8"/>
<g id="_&#229;&#175;&#131;&#226;&#145;&#184;&#226;&#148;&#129;_&#239;&#167;&#143;&#226;&#145;&#164;&#235;&#177;&#182;">
<path id="Vector" d="M34.9071 22.9755C34.1077 22.4867 33.0881 22.6923 32.5217 23.4098L32.5175 23.4161C32.8909 22.5853 32.6098 21.5929 31.8126 21.1041C30.9482 20.5754 29.8216 20.8482 29.2929 21.7125C27.9334 23.735 30.0985 27.3749 30.0985 27.3749C30.3398 27.3728 34.3385 27.6225 35.5155 25.4951C36.0442 24.6308 35.7714 23.5042 34.9071 22.9755Z" fill="#F55496"/>
<path id="Vector_2" d="M31.8147 15.8002C30.8496 16.8932 31.8482 19.2199 31.8482 19.2199C31.9909 19.2366 34.3427 19.6982 35.2071 18.5296C35.5868 18.0597 35.5155 17.3695 35.0434 16.9876C34.6071 16.6352 33.9882 16.6771 33.5958 17.059V17.0632C33.8791 16.5995 33.7909 15.989 33.3567 15.6365C32.8867 15.2568 32.1965 15.3302 31.8147 15.8002Z" fill="#FFA1D0"/>
<path id="Vector_3" d="M31.4476 13.5093C31.5 13.4337 32.4546 12.2526 32.056 11.4218C31.9049 11.0693 31.4958 10.9057 31.1434 11.0567C30.8161 11.1973 30.6566 11.5582 30.7531 11.8896C30.579 11.5938 30.2098 11.4638 29.8825 11.6022C29.53 11.7533 29.3664 12.1624 29.5174 12.5148C29.8447 13.3792 31.4455 13.5093 31.4455 13.5093" fill="#FFCAE5"/>
<g id="Group 575">
<path id="Vector_4" d="M27.5728 30.1228C27.2392 20.9127 18.8747 21.1141 18.56 21.1141C18.2453 21.1141 9.88071 20.9127 9.54713 30.1228C9.37929 33.6326 8.82753 36.5362 8.31982 38.5649C10.8814 41.2965 14.4815 42.9979 18.4739 42.9979C22.4664 42.9979 26.1923 41.2356 28.7623 38.4202C28.2651 36.3998 27.7364 33.5487 27.5728 30.1228Z" fill="#FDF0F5"/>
<path id="Vector_5" d="M22.6573 21.777C22.5063 20.9043 21.8014 20.2434 20.595 20.2434C20.3622 20.2434 20.1377 20.2686 19.9258 20.3168C19.6153 20.0315 19.1202 19.8154 18.56 19.8154C17.9999 19.8154 17.5026 20.0315 17.1942 20.3168C16.9824 20.2686 16.76 20.2434 16.5271 20.2434C15.3208 20.2434 14.6159 20.9043 14.4648 21.777C14.32 22.612 14.6347 23.1638 15.8432 23.1638C16.1683 23.1638 16.5292 23.1239 16.8796 23.0484C16.9949 23.7722 17.7041 24.1183 18.5621 24.1183C19.4202 24.1183 20.1293 23.7722 20.2447 23.0484C20.5971 23.1218 20.9559 23.1638 21.2832 23.1638C22.4895 23.1638 22.8063 22.612 22.6615 21.777" fill="#F55496"/>
<path id="Vector_6" d="M18.7299 40.5389C18.6838 40.6942 18.6271 40.8536 18.56 41.0089C18.5096 41.1326 18.4509 41.2564 18.3817 41.3781C18.1698 41.7809 17.8844 42.1858 17.5089 42.5907L17.1627 42.9348C17.0243 42.9222 16.8858 42.9075 16.7515 42.8907C14.3578 42.5907 12.1465 41.6739 10.2814 40.304C10.1912 40.2389 10.1031 40.1718 10.0171 40.1046L15.0921 35.8332C15.9648 35.0989 17.2739 35.3066 17.8949 36.2612C18.0691 36.5276 18.2348 36.8213 18.3817 37.1402C18.4467 37.2787 18.5075 37.4193 18.56 37.564C18.625 37.7256 18.6796 37.8934 18.7299 38.0654C18.9376 38.827 18.988 39.6662 18.7299 40.5389Z" fill="#FDF0F5"/>
<path id="Vector_7" d="M18.9104 40.9942C18.86 41.1264 18.8013 41.2586 18.7404 41.3886C18.6838 41.4998 18.6251 41.6089 18.5621 41.718C18.3481 42.0977 18.0754 42.4607 17.7481 42.8131L17.5887 42.9726C17.4439 42.9642 17.3033 42.9516 17.1628 42.9369C17.0243 42.9243 16.8858 42.9096 16.7516 42.8929L17.2824 42.3642C17.7061 41.9089 18.0104 41.4474 18.2139 40.9963C18.2852 40.8474 18.3439 40.6963 18.3901 40.5473C18.4803 40.2683 18.5348 39.9956 18.56 39.7249C18.5894 39.4543 18.5873 39.1879 18.56 38.9298C18.5306 38.634 18.4719 38.3445 18.3901 38.0718C18.3397 37.8976 18.281 37.7319 18.2139 37.5703C18.0523 37.1612 17.8446 36.7836 17.6243 36.4416C17.3747 36.0598 16.9782 35.8018 16.5292 35.7346C16.0865 35.6675 15.648 35.7934 15.3019 36.085L10.2815 40.3082C10.1913 40.2431 10.1031 40.176 10.0171 40.1089C9.92901 40.0417 9.8409 39.9746 9.75488 39.9033L14.8823 35.5878C15.3669 35.1829 16.0005 35.0024 16.6236 35.0968C17.2551 35.1913 17.8152 35.5521 18.1635 36.0934C18.3104 36.3221 18.4425 36.5486 18.56 36.7773C18.6251 36.9011 18.6838 37.0249 18.7362 37.1508C18.7971 37.2913 18.8558 37.4319 18.9041 37.5745C19.3279 38.7557 19.3279 39.9159 18.9104 40.9984" fill="#E2B3C9"/>
<path id="Vector_8" d="M27.0251 40.0333C26.939 40.1046 26.8488 40.1718 26.7607 40.2368C24.9124 41.6173 22.7284 42.5488 20.3515 42.874C20.2172 42.8907 20.0787 42.9096 19.9403 42.9201L19.6088 42.5907C19.2353 42.1879 18.95 41.7851 18.7402 41.3865C18.6731 41.2606 18.6101 41.1347 18.5619 41.0068C18.4948 40.8515 18.4381 40.6963 18.392 40.5431C18.1339 39.6683 18.1843 38.827 18.392 38.0675C18.4423 37.8934 18.4969 37.7277 18.5619 37.5619C18.6143 37.4172 18.6731 37.2808 18.7381 37.1444C18.885 36.8234 19.0549 36.5297 19.229 36.2612C19.8458 35.3066 21.1592 35.0989 22.0319 35.8332L27.0272 40.0333H27.0251Z" fill="#FDF0F5"/>
<path id="Vector_9" d="M27.2832 39.828C27.1972 39.8994 27.1133 39.9665 27.0252 40.0336C26.9392 40.105 26.849 40.1721 26.7608 40.2371L21.8202 36.0811C21.474 35.7895 21.0355 35.6636 20.5887 35.7307C20.1418 35.7979 19.7432 36.0559 19.4956 36.4377C19.2753 36.7776 19.0676 37.1573 18.9019 37.5685C18.8369 37.7301 18.7781 37.8937 18.7278 38.0658C18.6459 38.3427 18.5872 38.6259 18.5578 38.9238C18.5348 39.1861 18.5306 39.4525 18.5578 39.7231C18.5851 39.9896 18.6376 40.2644 18.7278 40.5392C18.7739 40.6924 18.8327 40.8414 18.9061 40.9945C19.1117 41.4519 19.418 41.9134 19.8439 42.3729L20.3495 42.8743C20.2152 42.8911 20.0768 42.9099 19.9383 42.9204C19.7998 42.9372 19.6593 42.9498 19.5187 42.9582L19.3802 42.8197C19.0508 42.4652 18.776 42.098 18.5578 41.7162C18.4928 41.605 18.432 41.4938 18.3795 41.3784C18.3145 41.2525 18.2599 41.1225 18.2117 40.9945C17.7921 39.9078 17.7921 38.7476 18.2117 37.5664C18.262 37.4259 18.3166 37.2853 18.3795 37.1406C18.4361 37.021 18.4949 36.8972 18.5578 36.7734C18.6732 36.5447 18.8054 36.3182 18.9522 36.0895C19.3026 35.5482 19.8628 35.1874 20.4942 35.0929C21.1173 34.9985 21.7509 35.179 22.2356 35.5839L27.2811 39.828H27.2832Z" fill="#E2B3C9"/>
<path id="Vector_10" d="M24.8244 33.4103C24.8244 33.8571 24.2202 34.2201 23.4775 34.2201C22.7348 34.2201 22.1306 33.8571 22.1306 33.4103C22.1306 32.9634 22.7348 32.6025 23.4775 32.6025C24.2202 32.6025 24.8244 32.9655 24.8244 33.4103Z" fill="#F6C8DD"/>
<path id="Vector_11" d="M12.2932 33.4103C12.2932 33.8571 12.8974 34.218 13.6401 34.218C14.3828 34.218 14.987 33.8571 14.987 33.4103C14.987 32.9634 14.3828 32.6025 13.6401 32.6025C12.8974 32.6025 12.2932 32.9634 12.2932 33.4103Z" fill="#F6C8DD"/>
<path id="Vector_12" d="M14.1438 29.1281C14.0326 29.1281 13.9298 29.0568 13.892 28.9456C13.8459 28.8071 13.9235 28.6582 14.0619 28.612L15.6921 28.0812C15.8305 28.0351 15.9795 28.1127 16.0256 28.2512C16.0718 28.3896 15.9942 28.5386 15.8557 28.5847L14.2256 29.1155C14.1983 29.1239 14.171 29.1281 14.1438 29.1281Z" fill="#281E1E"/>
<path id="Vector_13" d="M22.9152 29.1281C22.8879 29.1281 22.8606 29.1239 22.8334 29.1155L21.2032 28.5847C21.0648 28.5386 20.9892 28.3896 21.0333 28.2512C21.0774 28.1127 21.2263 28.0351 21.3669 28.0812L22.997 28.612C23.1355 28.6582 23.211 28.8071 23.1669 28.9456C23.1313 29.0568 23.0264 29.1281 22.9152 29.1281Z" fill="#281E1E"/>
<path id="Vector_14" d="M21.0608 30.9557C21.0608 31.5473 21.5391 32.0256 22.1307 32.0256C22.7224 32.0256 23.2007 31.5473 23.2007 30.9557C23.2007 30.3641 22.7224 29.8647 22.1307 29.8647C21.5391 29.8647 21.0608 30.3641 21.0608 30.9557Z" fill="#281E1E"/>
<path id="Vector_15" d="M13.9192 30.9557C13.9192 31.5473 14.3975 32.0256 14.9891 32.0256C15.5808 32.0256 16.0591 31.5473 16.0591 30.9557C16.0591 30.3641 15.5808 29.8647 14.9891 29.8647C14.3975 29.8647 13.9192 30.3641 13.9192 30.9557Z" fill="#281E1E"/>
<path id="Vector_16" d="M15.0312 30.3617C15.1571 30.4876 15.1277 30.7204 14.9682 30.882C14.8067 31.0435 14.5738 31.0708 14.4479 30.9449C14.3221 30.819 14.3514 30.5862 14.5109 30.4246C14.6724 30.2631 14.9053 30.2358 15.0312 30.3617Z" fill="white"/>
<path id="Vector_17" d="M15.5661 31.2515C15.6332 31.3186 15.6185 31.4445 15.5325 31.5305C15.4465 31.6165 15.3206 31.6333 15.2535 31.564C15.1864 31.4969 15.201 31.371 15.2871 31.285C15.3731 31.199 15.499 31.1822 15.5661 31.2515Z" fill="white"/>
<path id="Vector_18" d="M22.1725 30.3617C22.2984 30.4876 22.269 30.7204 22.1096 30.882C21.9481 31.0435 21.7152 31.0708 21.5893 30.9449C21.4634 30.819 21.4928 30.5862 21.6522 30.4246C21.8138 30.2631 22.0467 30.2358 22.1725 30.3617Z" fill="white"/>
<path id="Vector_19" d="M22.7077 31.2515C22.7748 31.3186 22.7601 31.4445 22.6741 31.5305C22.5881 31.6165 22.4622 31.6333 22.3951 31.564C22.328 31.4969 22.3426 31.371 22.4287 31.285C22.5147 31.199 22.6406 31.1822 22.7077 31.2515Z" fill="white"/>
<path id="Vector_20" d="M18.6354 34.8098C18.3417 34.8098 18.0039 34.7615 17.7144 34.5979C17.3032 34.365 17.0703 33.9601 17.0703 33.4839C17.0703 33.0076 17.3053 32.6027 17.7144 32.3698C18.3375 32.0174 19.183 32.202 19.3466 32.244C19.7242 32.3384 19.9529 32.7202 19.8585 33.0978C19.8186 33.2594 19.7263 33.3936 19.6025 33.4859C19.7242 33.5804 19.8165 33.7146 19.8564 33.8741C19.9487 34.2496 19.7221 34.6293 19.3466 34.7237C19.2585 34.7447 18.9753 34.8098 18.6354 34.8098Z" fill="#F55496"/>
</g>
</g>
</g>
</g>
</g>
</svg>
