<svg width="28" height="28" viewBox="0 0 28 28" fill="none" xmlns="http://www.w3.org/2000/svg">
<g id="40_Setting">
<path id="Shape" fill-rule="evenodd" clip-rule="evenodd" d="M14.6668 22.0956C14.843 22.0956 15.001 21.987 15.0642 21.8225C15.8685 19.7299 18.0247 18.4842 20.2379 18.8335C20.4119 18.8609 20.5849 18.7783 20.673 18.6256L21.3398 17.4699C21.4279 17.3172 21.4129 17.126 21.3021 16.9889C19.8932 15.2457 19.8932 12.7543 21.3021 11.011C21.4129 10.8739 21.4278 10.6827 21.3398 10.53L20.6729 9.37427C20.5849 9.22159 20.4119 9.13896 20.2379 9.16643C18.0247 9.51571 15.8685 8.27001 15.0642 6.17743C15.001 6.01288 14.843 5.9043 14.6668 5.9043L13.3332 5.9043C13.157 5.9043 12.999 6.01288 12.9358 6.17743C12.1315 8.27002 9.97534 9.51571 7.76218 9.16643C7.58815 9.13896 7.41519 9.22158 7.32709 9.37427L6.66029 10.53C6.5722 10.6827 6.58717 10.8739 6.69796 11.011C8.10682 12.7543 8.10682 15.2456 6.69796 16.9889C6.58717 17.126 6.5722 17.3172 6.66029 17.4699L5.18527 18.3221C4.74481 17.5587 4.81969 16.6027 5.37362 15.9172C6.27733 14.799 6.27733 13.2009 5.37362 12.0827C4.81969 11.3972 4.74481 10.4412 5.18527 9.67781L5.85208 8.5221C6.29254 7.75868 7.15735 7.34556 8.02752 7.48289C9.44714 7.70693 10.8302 6.90789 11.3461 5.56561C11.6623 4.74285 12.4523 4.19995 13.3332 4.19995L14.6668 4.19995C15.5477 4.19995 16.3377 4.74285 16.6539 5.5656C17.1698 6.90788 18.5529 7.70693 19.9725 7.48289C20.8427 7.34556 21.7075 7.75868 22.148 8.52209L22.8148 9.67781C23.2552 10.4412 23.1804 11.3972 22.6264 12.0827C21.7227 13.2009 21.7227 14.799 22.6264 15.9172C23.1804 16.6027 23.2552 17.5587 22.8148 18.3221L22.148 19.4778C21.7075 20.2412 20.8427 20.6543 19.9725 20.517C18.5529 20.293 17.1698 21.092 16.6539 22.4343C16.3377 23.2571 15.5478 23.7999 14.6668 23.7999H13.3332C12.4523 23.7999 11.6624 23.2571 11.3461 22.4343C10.8302 21.092 9.44715 20.293 8.02752 20.517C7.15736 20.6543 6.29254 20.2412 5.85208 19.4778L5.18527 18.3221L6.66029 17.4699L7.32709 18.6256C7.41519 18.7783 7.58815 18.8609 7.76218 18.8335C9.97535 18.4842 12.1315 19.7299 12.9358 21.8225C12.999 21.987 13.157 22.0956 13.3332 22.0956H14.6668ZM10.1678 14C10.1678 11.8821 11.8836 10.1652 14 10.1652C16.1165 10.1652 17.8322 11.8821 17.8322 14C17.8322 16.1178 16.1165 17.8347 14 17.8347C11.8836 17.8347 10.1678 16.1178 10.1678 14ZM11.871 14C11.871 12.8233 12.8242 11.8695 14 11.8695C15.1758 11.8695 16.129 12.8233 16.129 14C16.129 15.1766 15.1758 16.1304 14 16.1304C12.8242 16.1304 11.871 15.1766 11.871 14Z" fill="#4D545B"/>
</g>
</svg>
