<svg width="40" height="40" viewBox="0 0 40 40" fill="none" xmlns="http://www.w3.org/2000/svg">
<g id="Group 543">
<g id="Group 138">
<g id="Group 129">
<path id="Icon" d="M16.7273 8V11.2727M23.2727 8V11.2727M16.7273 28.7273V32M23.2727 28.7273V32M28.7273 16.7273H32M28.7273 22.1818H32M8 16.7273H11.2727M8 22.1818H11.2727M13.4545 11.2727H26.5455C27.7504 11.2727 28.7273 12.2496 28.7273 13.4545V26.5455C28.7273 27.7504 27.7504 28.7273 26.5455 28.7273H13.4545C12.2496 28.7273 11.2727 27.7504 11.2727 26.5455V13.4545C11.2727 12.2496 12.2496 11.2727 13.4545 11.2727Z" stroke="#4D545B" stroke-width="2" stroke-linecap="round" stroke-linejoin="round"/>
<g id="Icon_2">
<path d="M23.9273 22.9166C23.9273 22.9484 23.9147 22.9771 23.8896 23.0025C23.8681 23.028 23.8304 23.0487 23.7766 23.0646C23.7228 23.0805 23.651 23.0932 23.5613 23.1027C23.4716 23.1123 23.3568 23.1171 23.2169 23.1171C23.0806 23.1171 22.9658 23.1123 22.8725 23.1027C22.7828 23.0932 22.711 23.0805 22.6572 23.0646C22.6034 23.0487 22.564 23.028 22.5388 23.0025C22.5173 22.9771 22.5065 22.9484 22.5065 22.9166V17.0838C22.5065 17.052 22.5173 17.0233 22.5388 16.9979C22.564 16.9724 22.6034 16.9517 22.6572 16.9358C22.7146 16.9199 22.7882 16.9072 22.8779 16.8976C22.9676 16.8881 23.0806 16.8833 23.2169 16.8833C23.3568 16.8833 23.4716 16.8881 23.5613 16.8976C23.651 16.9072 23.7228 16.9199 23.7766 16.9358C23.8304 16.9517 23.8681 16.9724 23.8896 16.9979C23.9147 17.0233 23.9273 17.052 23.9273 17.0838V22.9166Z" fill="#4D545B"/>
<path d="M21.5271 22.6207C21.5702 22.7352 21.5971 22.8259 21.6078 22.8927C21.6186 22.9596 21.6042 23.0105 21.5648 23.0455C21.5253 23.0773 21.4553 23.0964 21.3549 23.1027C21.2544 23.1123 21.1163 23.1171 20.9405 23.1171C20.7575 23.1171 20.614 23.1139 20.51 23.1075C20.4095 23.1043 20.3324 23.0964 20.2786 23.0837C20.2248 23.0677 20.1871 23.0471 20.1656 23.0216C20.144 22.9961 20.1261 22.9627 20.1117 22.9214L19.6435 21.6803H17.0281L16.5868 22.888C16.5725 22.9325 16.5527 22.9707 16.5276 23.0025C16.5061 23.0312 16.4684 23.055 16.4146 23.0741C16.3644 23.09 16.2908 23.1012 16.1939 23.1075C16.1007 23.1139 15.9769 23.1171 15.8226 23.1171C15.6576 23.1171 15.5284 23.1123 15.4351 23.1027C15.3419 23.0932 15.2773 23.0709 15.2414 23.0359C15.2055 22.9977 15.193 22.9452 15.2037 22.8784C15.2145 22.8116 15.2414 22.7225 15.2845 22.6111L17.4317 17.1315C17.4532 17.0774 17.4784 17.0345 17.5071 17.0026C17.5358 16.9676 17.5806 16.9422 17.6416 16.9263C17.7062 16.9072 17.7941 16.896 17.9053 16.8928C18.0165 16.8865 18.1636 16.8833 18.3466 16.8833C18.5583 16.8833 18.7269 16.8865 18.8525 16.8928C18.978 16.896 19.0749 16.9072 19.1431 16.9263C19.2148 16.9422 19.265 16.9676 19.2937 17.0026C19.326 17.0376 19.3529 17.0854 19.3745 17.1458L21.5271 22.6207ZM18.3304 18.0909H18.3251L17.3402 20.7162H19.3153L18.3304 18.0909Z" fill="#4D545B"/>
</g>
</g>
</g>
</g>
</svg>
