<svg width="20" height="20" viewBox="0 0 20 20" fill="none" xmlns="http://www.w3.org/2000/svg">
<g clip-path="url(#clip0_332_7550)">
<path d="M12.1931 5.30929C11.8383 4.96821 11.5018 4.66869 11.1934 4.34272C10.6998 3.82031 10.6706 3.07177 11.0989 2.51698C11.4899 2.01022 12.2244 1.84724 12.8012 2.15648C12.9644 2.2439 13.1134 2.37019 13.2457 2.50187C14.6797 3.92933 16.1109 5.36002 17.5394 6.79288C18.1356 7.39138 18.1545 8.27106 17.5923 8.81884C17.0296 9.36662 16.1832 9.33693 15.5902 8.74274C15.2932 8.44484 15.0048 8.1383 14.6829 7.80532C14.085 8.413 13.525 8.9829 12.9644 9.55173C12.731 9.78865 12.5026 10.0315 12.2585 10.2571C12.1305 10.3753 12.1256 10.4681 12.1947 10.6257C13.0535 12.5718 12.9195 14.4547 11.801 16.2637C11.3825 16.941 10.8343 17.0074 10.2758 16.4505C8.01558 14.1957 5.75804 11.9382 3.50212 9.67963C3.03494 9.21227 3.07977 8.65154 3.62849 8.28995C5.44587 7.09294 7.361 6.94291 9.35444 7.79992C9.53051 7.87548 9.62989 7.87332 9.76923 7.73192C10.5572 6.93157 11.3571 6.1431 12.1942 5.30983L12.1931 5.30929Z" fill="#BEC7CD"/>
<path d="M5.42588 13.5928C5.76667 13.9268 6.08586 14.2393 6.43584 14.5825C6.11557 14.895 5.78666 15.2102 5.46369 15.5318C4.72486 16.2669 3.99034 17.0063 3.25097 17.7402C2.9172 18.0716 2.49918 18.0856 2.20213 17.7866C1.91589 17.4984 1.93425 17.084 2.25992 16.7575C3.31254 15.7018 4.3684 14.65 5.42642 13.5928H5.42588Z" fill="#BEC7CD"/>
</g>
<defs>
<clipPath id="clip0_332_7550">
<rect width="20" height="20" fill="white"/>
</clipPath>
</defs>
</svg>
