<svg width="28" height="28" viewBox="0 0 28 28" fill="none" xmlns="http://www.w3.org/2000/svg">
<g id="Group">
<g id="Group 560">
<g id="Group 550">
<path id="Exclude" fill-rule="evenodd" clip-rule="evenodd" d="M23 19.3921V9.72871C23 7.97266 22.008 6.44253 20.5511 5.67234C20.0344 5.40533 19.4145 5.76476 19.4145 6.33984C19.4145 7.97266 18.0712 9.30767 16.4282 9.30767H11.5718C9.92882 9.30767 8.58553 7.97266 8.58553 6.33984C8.58553 5.76476 7.95522 5.40533 7.44891 5.67234C5.99196 6.44253 5 7.97266 5 9.72871V19.3921C5 21.9184 7.07692 23.9825 9.61883 23.9825H18.3812C20.9231 23.9825 23 21.9184 23 19.3921ZM11.5536 14.1528C11.8558 13.8695 12.3304 13.8848 12.6137 14.187C12.897 14.4892 12.8817 14.9638 12.5795 15.2471L11.2965 16.45H15.3999C15.8141 16.45 16.1499 16.7857 16.1499 17.2C16.1499 17.6142 15.8141 17.95 15.3999 17.95H11.2965L12.5795 19.1528C12.8817 19.4361 12.897 19.9107 12.6137 20.2129C12.3304 20.5151 11.8558 20.5304 11.5536 20.2471L8.88695 17.7471C8.73571 17.6053 8.6499 17.4073 8.6499 17.2C8.6499 16.9926 8.73571 16.7946 8.88695 16.6528L11.5536 14.1528Z" fill="#4D545B"/>
<path id="Vector" d="M16.3498 4.2002H11.6498C10.6098 4.2002 9.75977 4.88649 9.75977 5.7362V6.5042C9.75977 7.3539 10.5998 8.0402 11.6398 8.0402H16.3498C17.3898 8.0402 18.2298 7.3539 18.2298 6.5042V5.7362C18.2398 4.88649 17.3898 4.2002 16.3498 4.2002Z" fill="#4D545B"/>
</g>
</g>
</g>
</svg>
