<svg width="20" height="20" viewBox="0 0 20 20" fill="none" xmlns="http://www.w3.org/2000/svg">
<g id="24/24_file_icons">
<mask id="mask0_598_49505" style="mask-type:alpha" maskUnits="userSpaceOnUse" x="0" y="0" width="20" height="20">
<circle id="Ellipse 6" cx="10" cy="10" r="10" fill="#D6EEFA"/>
</mask>
<g mask="url(#mask0_598_49505)">
<circle id="Ellipse 7" cx="10" cy="10" r="10" fill="#E9E9E9"/>
<path id="Line" d="M5 12.0833H8.33333" stroke="#BEC7CD" stroke-width="1.5" stroke-miterlimit="10" stroke-linecap="round" stroke-linejoin="round"/>
<path id="Line_2" d="M5 15H11.6667" stroke="#BEC7CD" stroke-width="1.5" stroke-miterlimit="10" stroke-linecap="round" stroke-linejoin="round"/>
<g id="etc">
<path id="Vector" d="M15.0582 7.83333C15.0582 8.31777 14.9049 8.68889 14.5982 8.94666C14.296 9.20889 13.856 9.34 13.2782 9.34C12.9404 9.34 12.6493 9.29777 12.4049 9.21333C12.1649 9.12889 11.9671 9.00666 11.8115 8.84666C11.656 8.68666 11.5404 8.49333 11.4649 8.26666C11.3938 8.04 11.3582 7.78666 11.3582 7.50666V6.74666C11.3582 6.46666 11.4004 6.21555 11.4849 5.99333C11.5693 5.76666 11.6915 5.57333 11.8515 5.41333C12.016 5.25333 12.216 5.13111 12.4515 5.04666C12.6915 4.95777 12.9627 4.91333 13.2649 4.91333C13.536 4.91333 13.7804 4.95111 13.9982 5.02666C14.2204 5.10222 14.4071 5.20666 14.5582 5.34C14.7138 5.47333 14.836 5.63333 14.9249 5.82C15.0138 6.00222 15.0649 6.2 15.0782 6.41333H14.1049C14.0738 6.24 13.9893 6.09555 13.8515 5.98C13.7182 5.86 13.5315 5.8 13.2915 5.8C12.9804 5.8 12.7493 5.88444 12.5982 6.05333C12.4471 6.21777 12.3715 6.47333 12.3715 6.82V7.43333C12.3715 7.60666 12.3871 7.76 12.4182 7.89333C12.4493 8.02222 12.5004 8.12889 12.5715 8.21333C12.6427 8.29777 12.736 8.36 12.8515 8.4C12.9671 8.44444 13.1093 8.46666 13.2782 8.46666C13.5227 8.46666 13.716 8.41555 13.8582 8.31333C14.0049 8.20666 14.0893 8.04666 14.1115 7.83333H15.0582Z" fill="#7F8896"/>
<path id="Vector_2" d="M10.3236 3.66675V5.12675H11.1169V6.00008H10.3236V7.81342C10.3236 7.9023 10.328 7.98453 10.3369 8.06008C10.3458 8.13119 10.3658 8.19564 10.3969 8.25342C10.4325 8.31119 10.4858 8.35564 10.5569 8.38675C10.628 8.41786 10.728 8.43341 10.8569 8.43341H11.1903V9.31342H10.6903C10.4191 9.31342 10.1947 9.28008 10.0169 9.21342C9.83914 9.14675 9.69692 9.05564 9.59025 8.94008C9.48359 8.82453 9.40803 8.68453 9.36358 8.52008C9.31914 8.36008 9.29692 8.1823 9.29692 7.98675V6.00008H8.57025V5.12675H9.29692V3.66675H10.3236Z" fill="#7F8896"/>
<path id="Vector_3" d="M8.22001 8.02666C8.14001 8.47555 7.9289 8.80666 7.58668 9.02C7.2489 9.23333 6.82668 9.34 6.32001 9.34C6.01335 9.34 5.73779 9.29777 5.49335 9.21333C5.25335 9.12889 5.04668 9.00666 4.87335 8.84666C4.70446 8.68666 4.57335 8.49333 4.48001 8.26666C4.39112 8.04 4.34668 7.78666 4.34668 7.50666V6.74666C4.34668 6.46666 4.39112 6.21555 4.48001 5.99333C4.57335 5.76666 4.70446 5.57333 4.87335 5.41333C5.04224 5.25333 5.24668 5.13111 5.48668 5.04666C5.73112 4.95777 6.00668 4.91333 6.31335 4.91333C6.61557 4.91333 6.8889 4.95777 7.13335 5.04666C7.37779 5.13111 7.58446 5.25333 7.75335 5.41333C7.92668 5.57333 8.05779 5.76666 8.14668 5.99333C8.24001 6.21555 8.28668 6.46666 8.28668 6.74666V6.89333C8.29112 6.93777 8.29335 6.98222 8.29335 7.02666C8.29335 7.06666 8.29335 7.10889 8.29335 7.15333V7.43333H5.36001C5.36001 7.81555 5.44224 8.08444 5.60668 8.24C5.77112 8.39111 6.0089 8.46666 6.32001 8.46666C6.52446 8.46666 6.70223 8.43555 6.85335 8.37333C7.00446 8.31111 7.09779 8.19555 7.13335 8.02666H8.22001ZM6.31335 5.8C6.03335 5.8 5.81335 5.86 5.65335 5.98C5.49779 6.1 5.40224 6.30666 5.36668 6.6H7.23335C7.20223 6.30666 7.1089 6.1 6.95335 5.98C6.80223 5.86 6.5889 5.8 6.31335 5.8Z" fill="#7F8896"/>
</g>
</g>
</g>
</svg>
