<svg width="28" height="28" viewBox="0 0 28 28" fill="none" xmlns="http://www.w3.org/2000/svg">
<g id="vuesax/bold/like">
<path id="Union" fill-rule="evenodd" clip-rule="evenodd" d="M17.38 7.80457C17.6295 6.64749 16.8547 5.48242 15.7713 5.1253C15.2401 4.93619 14.6818 4.97941 14.2188 5.13366C13.7582 5.2871 13.3078 5.57853 13.024 5.99035L13.0231 5.99165L10.5851 9.50705C10.4833 9.27072 10.3368 9.05469 10.1312 8.87083C9.6414 8.43263 8.977 8.32651 8.32316 8.32651H7.46544C6.81159 8.32651 6.14719 8.43263 5.65736 8.87083C5.14649 9.32786 5 9.98369 5 10.6559V18.8023C5 19.4745 5.14649 20.1303 5.65736 20.5873C6.14719 21.0255 6.81159 21.1317 7.46544 21.1317H8.32316C8.977 21.1317 9.6414 21.0255 10.1312 20.5873C10.3074 20.4297 10.4403 20.2485 10.5387 20.051L12.3014 21.3736C12.6032 21.6466 13.0047 21.8033 13.3336 21.8944C13.6966 21.9949 14.0855 22.0463 14.413 22.0463H17.6723C18.3606 22.0463 19.0458 21.7998 19.5964 21.4093C20.1389 21.0246 20.6047 20.4606 20.7924 19.7674L22.8398 13.7319C23.1286 12.9391 23.0275 12.129 22.5579 11.5114C22.0931 10.9 21.3399 10.5711 20.5028 10.5711H17.0719C17.0165 10.5711 16.9851 10.5496 16.9725 10.5357C16.9663 10.5289 16.9614 10.521 16.9581 10.5098C16.9549 10.4993 16.9502 10.4763 16.9556 10.4365L17.38 7.80457ZM10.7886 18.3632L13.2334 20.1976L13.2713 20.226L13.3052 20.2589C13.3426 20.2952 13.4773 20.3777 13.7339 20.4488C13.9714 20.5145 14.2258 20.5463 14.413 20.5463H17.6723C18.0132 20.5463 18.4002 20.4187 18.7287 20.1857C19.0577 19.9524 19.2727 19.654 19.3477 19.3633L19.3547 19.3362L19.3637 19.3097L21.4222 13.2415L21.4253 13.2322L21.4287 13.2231C21.5642 12.8553 21.4927 12.5888 21.3638 12.4193C21.2283 12.241 20.9522 12.0711 20.5028 12.0711H17.0719C16.1402 12.0711 15.3138 11.2884 15.4722 10.2143L15.4737 10.2042L15.4737 10.2043L15.9026 7.54422L15.9065 7.51995L15.912 7.49598C15.9867 7.17004 15.7429 6.69242 15.2974 6.54851L15.2845 6.54434L15.2718 6.53972C15.1206 6.48478 14.9123 6.48367 14.6929 6.55677C14.4678 6.63176 14.3183 6.75551 14.2589 6.84177L14.2573 6.84413L10.7886 11.8457V18.3632ZM6.5 10.6559C6.5 10.1644 6.61083 10.0305 6.65747 9.98877C6.72516 9.92822 6.91848 9.82651 7.46544 9.82651H8.32316C8.87012 9.82651 9.06344 9.92822 9.13112 9.98877C9.17777 10.0305 9.28859 10.1644 9.28859 10.6559V18.8023C9.28859 19.2938 9.17777 19.4277 9.13112 19.4694C9.06344 19.53 8.87012 19.6317 8.32316 19.6317H7.46544C6.91848 19.6317 6.72516 19.53 6.65747 19.4694C6.61083 19.4277 6.5 19.2938 6.5 18.8023V10.6559Z" fill="#7F8896"/>
</g>
</svg>
