<svg width="64" height="80" viewBox="0 0 64 80" fill="none" xmlns="http://www.w3.org/2000/svg">
<g id="Group 561">
<rect id="Rectangle 223" width="64" height="80" fill="#F6FCFF"/>
<g id="frame">
<path id="Vector" d="M31.9997 16.8C25.7117 16.8 20.5997 21.912 20.5997 28.2C20.5997 34.368 25.4237 39.36 31.7117 39.576C31.9037 39.552 32.0957 39.552 32.2397 39.576C32.2877 39.576 32.3117 39.576 32.3597 39.576C32.3837 39.576 32.3837 39.576 32.4077 39.576C38.5517 39.36 43.3757 34.368 43.3997 28.2C43.3997 21.912 38.2877 16.8 31.9997 16.8Z" fill="#D5E0E7"/>
<path id="Vector_2" d="M44.1916 45.9601C37.4956 41.4961 26.5756 41.4961 19.8316 45.9601C16.7836 48.0001 15.1036 50.7601 15.1036 53.7121C15.1036 56.6641 16.7836 59.4001 19.8076 61.4161C23.1676 63.6721 27.5836 64.8001 31.9996 64.8001C36.4156 64.8001 40.8316 63.6721 44.1916 61.4161C47.2156 59.3761 48.8956 56.6401 48.8956 53.6641C48.8716 50.7121 47.2156 47.9761 44.1916 45.9601Z" fill="#D5E0E7"/>
</g>
</g>
</svg>
