<svg width="28" height="28" viewBox="0 0 28 28" fill="none" xmlns="http://www.w3.org/2000/svg">
<g id="vuesax/bold/like">
<g id="Group">
<path id="Vector" d="M10.9917 18.9081V10.4414C10.9917 10.1081 11.0917 9.78311 11.275 9.50811L13.55 6.12478C13.9083 5.58311 14.8 5.19978 15.5583 5.48311C16.375 5.75811 16.9167 6.67478 16.7417 7.49144L16.3083 10.2164C16.275 10.4664 16.3417 10.6914 16.4833 10.8664C16.625 11.0248 16.8333 11.1248 17.0583 11.1248H20.4833C21.1417 11.1248 21.7083 11.3914 22.0417 11.8581C22.3583 12.3081 22.4167 12.8914 22.2083 13.4831L20.1583 19.7248C19.9 20.7581 18.775 21.5998 17.6583 21.5998H14.4083C13.85 21.5998 13.0667 21.4081 12.7083 21.0498L11.6417 20.2248C11.2333 19.9164 10.9917 19.4248 10.9917 18.9081Z" fill="#4D545B"/>
<path id="Vector_2" d="M8.34166 8.81689H7.48332C6.19166 8.81689 5.66666 9.31689 5.66666 10.5502V18.9336C5.66666 20.1669 6.19166 20.6669 7.48332 20.6669H8.34166C9.63332 20.6669 10.1583 20.1669 10.1583 18.9336V10.5502C10.1583 9.31689 9.63332 8.81689 8.34166 8.81689Z" fill="#4D545B"/>
</g>
</g>
</svg>
