<svg width="24" height="24" viewBox="0 0 24 24" fill="none" xmlns="http://www.w3.org/2000/svg">
<path d="M12.7988 7.49121H5.79836C4.25971 7.49121 3 8.75092 3 10.2896V20.5112C3 21.8159 3.93579 22.3738 5.07852 21.735L8.61472 19.7644C8.99263 19.5575 9.60449 19.5575 9.9734 19.7644L13.5096 21.735C14.6613 22.3648 15.5971 21.8159 15.5971 20.5112V10.2896C15.5971 8.75092 14.3374 7.49121 12.7988 7.49121Z" fill="#FFDA60"/>
<path d="M20.9959 6.79836V17.02C20.9959 18.3247 20.0601 18.8736 18.9173 18.2437L17.1807 17.272C17.0368 17.191 16.9468 17.038 16.9468 16.8761V10.2896C16.9468 8.00408 15.0842 6.14151 12.7987 6.14151H9.13658C8.80366 6.14151 8.56971 5.79059 8.72267 5.50266C9.19057 4.61186 10.1264 4 11.1971 4H18.1975C19.7362 4 20.9959 5.25971 20.9959 6.79836Z" fill="#E2D5A8"/>
</svg>
