<svg width="16" height="16" viewBox="0 0 16 16" fill="none" xmlns="http://www.w3.org/2000/svg">
<path d="M7.14368 9.49538C7.0977 9.34742 7.07471 9.18538 7.07471 9.00925C7.07471 8.67107 7.16284 8.39278 7.33908 8.17437C7.52299 7.95597 7.79119 7.71643 8.14368 7.45575C8.47318 7.20916 8.71839 6.98723 8.87931 6.78996C9.04789 6.59269 9.13218 6.34963 9.13218 6.06077C9.13218 5.77191 9.02107 5.53589 8.79885 5.35271C8.58429 5.16248 8.28161 5.06737 7.8908 5.06737C7.65326 5.06737 7.44636 5.11317 7.27012 5.20476C7.09387 5.2893 6.95211 5.39146 6.84483 5.51123C6.74521 5.62395 6.68008 5.72611 6.64943 5.8177L5.5 5.2893C5.62261 5.09203 5.74904 4.91237 5.87931 4.75033C6.01724 4.58829 6.26245 4.42272 6.61494 4.25363C6.96743 4.08454 7.41571 4 7.95977 4C8.45019 4 8.88697 4.08807 9.27011 4.2642C9.66092 4.43329 9.9636 4.66931 10.1782 4.97226C10.3927 5.26816 10.5 5.59577 10.5 5.95509C10.5 6.28622 10.4387 6.57155 10.3161 6.8111C10.1935 7.05064 10.0441 7.25143 9.86782 7.41347C9.69923 7.56847 9.47701 7.74461 9.20115 7.94188C8.89464 8.16028 8.67241 8.34346 8.53448 8.49141C8.39655 8.63937 8.32759 8.82255 8.32759 9.04095C8.32759 9.18186 8.33525 9.33333 8.35057 9.49538H7.14368ZM7.85632 12C7.61877 12 7.41954 11.9295 7.25862 11.7886C7.10536 11.6407 7.02874 11.461 7.02874 11.2497C7.02874 11.0313 7.10536 10.8516 7.25862 10.7107C7.41954 10.5627 7.61877 10.4888 7.85632 10.4888C8.08621 10.4888 8.28161 10.5627 8.44253 10.7107C8.60345 10.8516 8.68391 11.0313 8.68391 11.2497C8.68391 11.461 8.60345 11.6407 8.44253 11.7886C8.28161 11.9295 8.08621 12 7.85632 12Z" fill="#67809C"/>
<circle cx="8" cy="8" r="6.5" stroke="#67809C"/>
</svg>
