<svg width="60" height="60" viewBox="0 0 60 60" fill="none" xmlns="http://www.w3.org/2000/svg">
<mask id="mask0_508_43851" style="mask-type:alpha" maskUnits="userSpaceOnUse" x="0" y="0" width="60" height="60">
<circle cx="30" cy="30" r="30" fill="#D9D9D9"/>
</mask>
<g mask="url(#mask0_508_43851)">
<rect x="-4.5" y="-3" width="67.5" height="66" fill="#F9DFDF"/>
<path d="M68.5434 43.8265C68.5434 47.0063 67.6456 49.9777 66.0957 52.5002H34.2761C34.4364 49.3257 34.7731 46.5841 35.1899 43.2707C36.0664 36.0399 40.3845 30.1719 46.7335 28.093C48.3582 27.5532 50.1057 27.2646 51.9709 27.2646C61.1202 27.2646 68.5381 34.6825 68.5381 43.8318" fill="#FDF0F5"/>
<path d="M26.7566 52.4997H-5.05233C-6.60217 49.9825 -7.5 47.0058 -7.5 43.826C-7.5 34.6766 -0.082181 27.2588 9.06717 27.2588C10.9216 27.2588 12.6745 27.542 14.2885 28.0818C20.6375 30.1607 24.9556 36.0287 25.8428 43.2702C26.2543 46.5836 26.591 49.3252 26.7513 52.4997" fill="#FDF0F5"/>
<path d="M50.469 52.4998L54.0001 69.75L5.25012 61.5L10.5635 52.4998C10.9376 50.9981 11.3437 49.2024 11.7392 47.1716C12.0973 45.3225 12.4393 43.2756 12.7226 41.1005C13.0379 38.7491 13.2837 36.2266 13.412 33.6239C13.4921 31.5183 13.8074 29.6799 14.2991 28.0819C16.3353 21.423 21.4016 18.783 25.335 17.7408C26.0404 17.5484 26.7138 17.4148 27.3177 17.3186C29.092 17.03 30.3586 17.0514 30.5189 17.0514C30.6792 17.0514 31.9458 17.0247 33.7255 17.3186C34.3347 17.4148 35.0027 17.5591 35.7082 17.7408C39.6469 18.7936 44.7132 21.439 46.7334 28.0926C47.225 29.6906 47.5403 31.5236 47.6205 33.6239C47.69 34.9279 47.7808 36.2052 47.8984 37.4504C48.342 42.2335 49.1222 46.5624 49.8704 49.956C50.0735 50.8752 50.2766 51.7249 50.469 52.4998Z" fill="#FFA6CA"/>
<path d="M27.4514 17.8483L26.094 12.3918C26.9704 11.7505 27.414 10.6229 27.1147 9.51126C26.7299 8.06831 25.2442 7.21323 23.8013 7.59802C22.3584 7.98281 21.5033 9.46851 21.8881 10.9115C22.1766 11.991 23.0798 12.7392 24.1166 12.8888L25.4741 18.34C25.5863 18.8049 26.0031 19.1149 26.4627 19.1149C26.5429 19.1149 26.6284 19.1042 26.7086 19.0828C27.2537 18.9492 27.585 18.3934 27.4514 17.8483Z" fill="#F55496"/>
<path d="M37.2367 7.59216C35.7938 7.20737 34.3081 8.06245 33.9233 9.5054C33.624 10.617 34.0676 11.7446 34.944 12.386L33.5866 17.8424C33.453 18.3875 33.7843 18.9433 34.3294 19.077C34.4096 19.0983 34.4951 19.109 34.5753 19.109C35.0349 19.109 35.4464 18.7991 35.564 18.3341L36.9161 12.883C37.9528 12.7333 38.856 11.9851 39.1446 10.9056C39.5294 9.46265 38.6743 7.97695 37.2314 7.59216" fill="#F55496"/>
<path d="M12.7229 41.0947C12.4396 43.2698 12.0976 45.3167 11.7395 47.1658C11.2532 47.3582 10.7883 47.5666 10.3607 47.775C10.2806 47.8178 10.2004 47.8552 10.1202 47.898C9.37203 48.3201 8.7521 48.8546 8.54902 49.544C8.53299 49.5974 8.50627 49.6509 8.49558 49.7043C8.44748 50.0036 8.45282 50.1746 8.53833 50.554L9.19567 52.494H3.25821C2.92687 51.6657 2.71844 51.0137 2.71844 51.0137C2.44054 50.2067 2.19471 49.4478 2.29625 48.5874C2.41382 47.5132 2.92152 46.5726 3.67506 45.8565C3.7766 45.7335 3.89418 45.616 4.01709 45.5144C4.28431 45.2632 4.84011 44.8304 5.4066 44.4349C7.69394 42.6659 10.8631 41.6078 12.7282 41.1001" fill="#F55496"/>
<path d="M21.7011 32.6081C21.7011 33.5059 22.4279 34.2327 23.3258 34.2327C24.2236 34.2327 24.9504 33.5059 24.9504 32.6081C24.9504 31.7102 24.2236 30.9834 23.3258 30.9834C22.4279 30.9834 21.7011 31.7102 21.7011 32.6081Z" fill="#281E1E"/>
<path d="M36.0932 32.6081C36.0932 33.5059 36.82 34.2327 37.7179 34.2327C38.6157 34.2327 39.3425 33.5059 39.3425 32.6081C39.3425 31.7102 38.6157 30.9834 37.7179 30.9834C36.82 30.9834 36.0932 31.7102 36.0932 32.6081Z" fill="#281E1E"/>
<path d="M34.7999 36.8514C34.7999 37.0438 34.7892 37.2308 34.7678 37.4232C34.6075 38.8448 33.9021 39.9778 32.7744 40.6298C32.1385 41.0039 31.3529 41.2016 30.5138 41.2016C29.6748 41.2016 28.8999 41.0039 28.2532 40.6298C27.1309 39.9778 26.4201 38.8395 26.2705 37.4232C26.1369 36.2101 26.4308 34.9649 26.9759 34.4679C27.3767 34.0991 28.5685 33.9067 30.5138 33.9014C32.4645 33.9067 33.6562 34.0991 34.0624 34.4679C34.5167 34.8847 34.7999 35.8413 34.7999 36.8514Z" fill="#281E1E"/>
<path d="M54.5894 42.3888C54.6001 42.2018 54.5894 42.0147 54.552 41.8277C54.5467 41.801 54.055 39.3319 54.5681 36.3017C54.7658 35.1313 53.9802 34.0251 52.8098 33.8273C51.6394 33.6296 50.5332 34.4152 50.3354 35.5856C50.1965 36.4193 50.1163 37.2156 50.0735 37.9584C49.5498 37.8035 49.0207 37.6752 48.497 37.5523C45.1408 36.7934 43.11 38.3058 42.2335 42.159C41.3624 46.0122 43.1848 48.9248 46.5357 49.6837C49.8865 50.4426 53.1786 50.1914 54.3757 44.906C54.5948 43.9387 54.6482 43.1103 54.5787 42.3888" fill="#F55496"/>
</g>
</svg>
