<svg width="20" height="20" viewBox="0 0 20 20" fill="none" xmlns="http://www.w3.org/2000/svg">
<path fill-rule="evenodd" clip-rule="evenodd" d="M10.0265 12.7971C12.4865 12.7971 14.4808 10.7812 14.4808 8.29457C14.4808 7.85574 14.8328 7.5 15.2669 7.5C15.701 7.5 16.053 7.85574 16.053 8.29457C16.053 8.8288 15.9849 9.34698 15.8571 9.84073L17.3749 10.1619C17.7998 10.2518 18.0721 10.6729 17.9832 11.1024C17.8942 11.5319 17.4777 11.8072 17.0527 11.7173L15.4307 11.3741C15.3706 11.3614 15.3135 11.342 15.2601 11.3169C15.1497 11.5118 15.029 11.6999 14.8987 11.8805C14.9339 11.9055 14.9676 11.9337 14.9994 11.9651L16.1822 13.1383C16.4921 13.4457 16.4968 13.9487 16.1928 14.2619C15.8887 14.5752 15.391 14.5799 15.0811 14.2726L13.8983 13.0994C13.8731 13.0745 13.85 13.0482 13.8289 13.0209C12.7917 13.8745 11.4682 14.3862 10.0265 14.3862C6.69815 14.3862 4 11.6589 4 8.29456C4 7.85574 4.35193 7.5 4.78606 7.5C5.22019 7.5 5.57212 7.85574 5.57212 8.29456C5.57212 10.7812 7.56641 12.7971 10.0265 12.7971Z" fill="#A6B0BE"/>
</svg>
