<svg width="24" height="24" viewBox="0 0 24 24" fill="none" xmlns="http://www.w3.org/2000/svg">
<path d="M1 5.05351V9.38684M1 9.38684H5.30127M1 9.38684L5.86248 4.78462C7.31113 3.32768 9.19166 2.38343 11.2207 2.09416C13.2497 1.80489 15.3174 2.18628 17.112 3.18085C18.9066 4.17542 20.331 5.72929 21.1705 7.6083C22.01 9.48731 22.2192 11.5897 21.7665 13.5986C21.3138 15.6074 20.2237 17.414 18.6606 18.7461" stroke="#BEC7CD" stroke-width="2" stroke-linecap="round" stroke-linejoin="round"/>
<path d="M4.59085 16.5581C4.76664 16.9072 4.96295 17.2436 5.17823 17.5658" stroke="#BEC7CD" stroke-width="2" stroke-linecap="round" stroke-linejoin="round"/>
<path d="M7.56803 19.6494C8.23888 20.0794 8.9563 20.4207 9.70245 20.6686" stroke="#BEC7CD" stroke-width="2" stroke-linecap="round" stroke-linejoin="round"/>
<path d="M12.9566 20.9168C14.0518 20.8344 15.1163 20.5641 16.1057 20.1245" stroke="#BEC7CD" stroke-width="2" stroke-linecap="round" stroke-linejoin="round"/>
<path d="M12 7V13L15.5 10.5" stroke="#BEC7CD" stroke-width="2" stroke-linecap="round" stroke-linejoin="round"/>
</svg>
