<svg width="24" height="24" viewBox="0 0 24 24" fill="none" xmlns="http://www.w3.org/2000/svg">
<g id="vuesax/bold/dislike">
<path id="Union" fill-rule="evenodd" clip-rule="evenodd" d="M8.62143 18.2003C8.37135 19.357 9.14825 20.5193 10.2306 20.8751C10.7614 21.0636 11.3192 21.0205 11.782 20.8668C12.2422 20.7139 12.6927 20.4233 12.9768 20.0123L12.9777 20.0109L15.4164 16.5042C15.5182 16.7404 15.665 16.9563 15.8709 17.1399C16.3606 17.5769 17.0247 17.6826 17.6782 17.6826H18.5359C19.1894 17.6826 19.8534 17.5769 20.3432 17.1399C20.8546 16.6837 21.0013 16.0286 21.0013 15.3575V7.23324C21.0013 6.56208 20.8546 5.90705 20.3432 5.45082C19.8534 5.01385 19.1894 4.90814 18.5359 4.90814H17.6782C17.0247 4.90814 16.3606 5.01385 15.8709 5.45082C15.6945 5.60818 15.5615 5.7892 15.4629 5.98638L13.6992 4.66664C13.3973 4.39433 12.9959 4.23812 12.6672 4.14734C12.3044 4.04716 11.9157 3.99593 11.5884 3.99593H8.32906C7.64122 3.99593 6.95632 4.24159 6.40572 4.63099C5.86332 5.01458 5.39709 5.57724 5.20915 6.26956L3.16179 12.2885C2.87251 13.0803 2.9739 13.8895 3.44402 14.5062C3.90918 15.1164 4.66222 15.444 5.49859 15.444H8.92946C8.98553 15.444 9.01714 15.4658 9.02957 15.4794C9.03559 15.486 9.04022 15.4936 9.04342 15.5043C9.0464 15.5142 9.05107 15.5365 9.04574 15.5756L8.62143 18.2003ZM15.2127 7.67263L12.7687 5.84383L12.7308 5.81549L12.6968 5.78261C12.6595 5.74656 12.5248 5.66416 12.2679 5.59322C12.0303 5.5276 11.7758 5.49593 11.5884 5.49593H8.32906C7.98763 5.49593 7.60038 5.62332 7.27183 5.85567C6.94274 6.08841 6.7283 6.38568 6.65355 6.67465L6.64653 6.70181L6.63749 6.72836L4.57897 12.7801L4.57582 12.7893L4.57243 12.7985C4.43732 13.1642 4.50858 13.4285 4.63691 13.5968C4.77215 13.7742 5.04837 13.944 5.49859 13.944H8.92946C9.85879 13.944 10.688 14.7235 10.5291 15.7984L10.5276 15.8085L10.5276 15.8085L10.0987 18.4613L10.0948 18.4856L10.0893 18.5097C10.0152 18.8318 10.2568 19.3077 10.7033 19.4515L10.7162 19.4557L10.7289 19.4603C10.8805 19.5152 11.0893 19.5163 11.309 19.4433C11.5345 19.3684 11.6839 19.2449 11.743 19.1593L11.7446 19.1569L15.2127 14.1697V7.67263ZM19.5013 15.3575C19.5013 15.8469 19.3908 15.9794 19.3446 16.0206C19.2769 16.0811 19.0832 16.1826 18.5359 16.1826H17.6782C17.1309 16.1826 16.9372 16.0811 16.8695 16.0206C16.8233 15.9794 16.7127 15.8469 16.7127 15.3575V7.23324C16.7127 6.7438 16.8233 6.61128 16.8695 6.57011C16.9372 6.50967 17.1309 6.40814 17.6782 6.40814H18.5359C19.0832 6.40814 19.2769 6.50967 19.3446 6.57011C19.3908 6.61128 19.5013 6.7438 19.5013 7.23324V15.3575Z" fill="#7F8896"/>
</g>
</svg>
