<svg width="20" height="20" viewBox="0 0 20 20" fill="none" xmlns="http://www.w3.org/2000/svg">
<path fill-rule="evenodd" clip-rule="evenodd" d="M4.55556 12.0676C4.55556 9.24644 6.99312 6.95946 10 6.95946C13.0069 6.95946 15.4444 9.24644 15.4444 12.0676C15.4444 12.4706 15.7927 12.7973 16.2222 12.7973C16.6518 12.7973 17 12.4706 17 12.0676C17 8.4404 13.866 5.5 10 5.5C6.13401 5.5 3 8.4404 3 12.0676C3 12.4706 3.34822 12.7973 3.77778 12.7973C4.20733 12.7973 4.55556 12.4706 4.55556 12.0676ZM10 14.5C11.7182 14.5 13.1111 13.1932 13.1111 11.5811C13.1111 9.96902 11.7182 8.66218 10 8.66218C8.28181 8.66218 6.88892 9.96902 6.88892 11.5811C6.88892 13.1932 8.28181 14.5 10 14.5Z" fill="#4D545B"/>
</svg>
