<svg width="40" height="40" viewBox="0 0 40 40" fill="none" xmlns="http://www.w3.org/2000/svg">
<path d="M27.1429 16.5143C27.1429 14.7866 26.4204 13.1297 25.1344 11.908C23.8485 10.6863 22.1043 10 20.2857 10C18.4671 10 16.7229 10.6863 15.437 11.908C14.151 13.1297 13.4286 14.7866 13.4286 16.5143C13.4286 24.1143 10 26.2857 10 26.2857H30.5714C30.5714 26.2857 27.1429 24.1143 27.1429 16.5143Z" stroke="white" stroke-width="2" stroke-linecap="round" stroke-linejoin="round"/>
<path d="M22.8572 28.8571C22.5959 29.3785 22.2208 29.8113 21.7695 30.1121C21.3182 30.413 20.8066 30.5713 20.2858 30.5713C19.765 30.5713 19.2533 30.413 18.802 30.1121C18.3508 29.8113 17.9757 29.3785 17.7144 28.8571" stroke="white" stroke-width="2" stroke-linecap="round" stroke-linejoin="round"/>
</svg>
