<svg width="16" height="16" viewBox="0 0 16 16" fill="none" xmlns="http://www.w3.org/2000/svg">
<g id="edit-2">
<g id="vuesax/bold/edit-2">
<g id="Group">
<path id="Vector" d="M14 14.6665H2C1.72667 14.6665 1.5 14.4398 1.5 14.1665C1.5 13.8932 1.72667 13.6665 2 13.6665H14C14.2733 13.6665 14.5 13.8932 14.5 14.1665C14.5 14.4398 14.2733 14.6665 14 14.6665Z" fill="#BEC7CD"/>
<path id="Vector_2" d="M12.68 2.31994C11.3867 1.02661 10.12 0.993275 8.79333 2.31994L7.98667 3.12661C7.92 3.19328 7.89333 3.29994 7.92 3.39328C8.42667 5.15994 9.84 6.57328 11.6067 7.07994C11.6333 7.08661 11.66 7.09328 11.6867 7.09328C11.76 7.09328 11.8267 7.06661 11.88 7.01328L12.68 6.20661C13.34 5.55328 13.66 4.91994 13.66 4.27994C13.6667 3.61994 13.3467 2.97994 12.68 2.31994Z" fill="#BEC7CD"/>
<path id="Vector_3" d="M10.4067 7.68654C10.2133 7.5932 10.0267 7.49987 9.84667 7.3932C9.7 7.30654 9.56 7.2132 9.42 7.1132C9.30667 7.03987 9.17333 6.9332 9.04667 6.82654C9.03333 6.81987 8.98667 6.77987 8.93333 6.72654C8.71333 6.53987 8.46667 6.29987 8.24667 6.0332C8.22667 6.01987 8.19334 5.9732 8.14667 5.9132C8.08 5.8332 7.96667 5.69987 7.86667 5.54654C7.78667 5.44654 7.69333 5.29987 7.60667 5.1532C7.5 4.9732 7.40667 4.7932 7.31333 4.60654C7.19096 4.34431 6.84679 4.26641 6.64217 4.47103L2.89333 8.21987C2.80667 8.30654 2.72667 8.4732 2.70667 8.58654L2.34667 11.1399C2.28 11.5932 2.40667 12.0199 2.68667 12.3065C2.92667 12.5399 3.26 12.6665 3.62 12.6665C3.7 12.6665 3.78 12.6599 3.86 12.6465L6.42 12.2865C6.54 12.2665 6.70667 12.1865 6.78667 12.0999L10.5417 8.34484C10.7422 8.14432 10.6669 7.79929 10.4067 7.68654Z" fill="#BEC7CD"/>
</g>
</g>
</g>
</svg>
