<svg width="24" height="24" viewBox="0 0 24 24" fill="none" xmlns="http://www.w3.org/2000/svg">
<g id="vuesax/linear/message-programming">
<g id="Group">
<path id="Vector" d="M8.85 18.2542H8.4C4.8 18.2542 3 17.3569 3 12.8704V8.38384C3 4.79461 4.8 3 8.4 3H15.6C19.2 3 21 4.79461 21 8.38384V12.8704C21 16.4596 19.2 18.2542 15.6 18.2542H15.15C14.871 18.2542 14.601 18.3888 14.43 18.6132L13.08 20.4078C12.486 21.1974 11.514 21.1974 10.92 20.4078L9.56999 18.6132C9.42599 18.4158 9.102 18.2542 8.85 18.2542Z" stroke="#7F8896" stroke-width="1.5" stroke-miterlimit="10" stroke-linecap="round" stroke-linejoin="round"/>
<path id="Vector_2" d="M8 8.69995L6 10.7L8 12.7" stroke="#7F8896" stroke-width="1.5" stroke-miterlimit="10" stroke-linecap="round" stroke-linejoin="round"/>
<path id="Vector_3" d="M16 8.69995L18 10.7L16 12.7" stroke="#7F8896" stroke-width="1.5" stroke-miterlimit="10" stroke-linecap="round" stroke-linejoin="round"/>
<path id="Line" d="M13 8.37012L11 13.0302" stroke="#7F8896" stroke-width="1.5" stroke-miterlimit="10" stroke-linecap="round" stroke-linejoin="round"/>
</g>
</g>
</svg>
