<svg width="40" height="40" viewBox="0 0 40 40" fill="none" xmlns="http://www.w3.org/2000/svg">
<rect width="40" height="40" rx="20" fill="#F1F1F1"/>
<path d="M11.5385 13.1543V18.2825M11.5385 18.2825H16.5738M11.5385 18.2825L15.4324 14.5561C16.5913 13.3778 18.0948 12.615 19.7164 12.3826C21.3379 12.1503 22.9897 12.461 24.4229 13.2678C25.856 14.0747 26.9928 15.334 27.6621 16.8561C28.3313 18.3782 28.4967 20.0806 28.1334 21.7068C27.77 23.3329 26.8976 24.7948 25.6475 25.8721C24.3975 26.9493 22.8375 27.5837 21.2027 27.6795C19.5678 27.7753 17.9467 27.3275 16.5836 26.4034C15.2204 25.4793 14.189 24.129 13.6449 22.556" stroke="#7F8896" stroke-width="2" stroke-linecap="round" stroke-linejoin="round"/>
</svg>
