<svg width="60" height="60" viewBox="0 0 60 60" fill="none" xmlns="http://www.w3.org/2000/svg">
<mask id="mask0_508_43807" style="mask-type:alpha" maskUnits="userSpaceOnUse" x="0" y="0" width="60" height="60">
<circle cx="30" cy="30" r="30" fill="#D9D9D9"/>
</mask>
<g mask="url(#mask0_508_43807)">
<rect x="-4.5" y="-3" width="67.5" height="66" fill="#BFE7FF"/>
<g clip-path="url(#clip0_508_43807)">
<path d="M9.40845 60.466C23.4856 57.1467 28.0075 44.5932 28.0075 44.5932C28.0075 44.5932 18.3543 35.3754 4.27713 38.6947C-2.02955 40.1802 -5.61005 46.1713 -4.19526 52.1841C-2.77503 58.1969 3.10177 61.957 9.40845 60.4715" fill="#D6EEFA"/>
<path d="M59.1545 48.8209C45.0665 52.0967 35.4405 42.8571 35.4405 42.8571C35.4405 42.8571 40.0005 30.3144 54.083 27.0332C60.3952 25.564 66.2611 29.3404 67.665 35.3587C69.0634 41.377 65.4666 47.3572 59.1545 48.8209Z" fill="#D6EEFA"/>
<path d="M57.3153 53.9525C56.9344 52.3201 56.3358 50.7856 55.5631 49.3599C55.5631 49.3599 55.5631 49.3599 55.5686 49.3545C55.5686 49.3545 55.5522 49.3327 55.5305 49.3055C55.1659 48.6417 54.7632 48.005 54.3224 47.3956C52.456 44.2613 48.8538 37.4975 46.1765 28.1001C41.4098 10.6057 25.5642 14.7249 24.9711 14.8609C24.3725 15.0024 8.34733 18.3435 11.8462 36.1371C13.6038 45.6652 13.397 53.2669 13.1195 56.9454C12.7114 59.3287 12.7604 61.7992 13.3372 64.2533C15.8892 75.1526 27.8006 81.6769 39.946 78.8365C52.0914 75.9906 59.8673 64.8518 57.3153 53.958" fill="#62BFED"/>
<path d="M24.1549 61.7768C27.9966 61.7768 31.8709 61.3415 35.6419 60.4545C43.4885 58.6153 50.4645 55.0076 56.0474 50.3333C55.8896 50.0014 55.7318 49.6749 55.5577 49.3593C55.5577 49.3593 55.5523 49.3539 55.5468 49.3484C55.1713 48.6573 54.7469 47.9935 54.2898 47.3568C54.1211 47.0739 53.9361 46.7583 53.7457 46.4209C48.598 50.8666 42.0302 54.3165 34.6025 56.0578C27.4742 57.7337 19.9649 57.6467 13.174 55.9054C13.1522 56.2972 13.125 56.6672 13.1032 56.9937C12.9726 57.7664 12.891 58.55 12.8638 59.339C12.8638 59.3444 12.8638 59.3553 12.8638 59.3553C12.8475 59.7199 12.8475 60.0899 12.8584 60.4599C16.5041 61.3251 20.3077 61.7768 24.1494 61.7768" fill="#FDD700"/>
<path d="M37.6117 69.1011C44.7999 67.6101 51.852 64.2908 57.718 59.8723C57.8921 58.0385 57.7887 56.1721 57.3915 54.3057C51.6289 59.2846 44.1523 63.1318 36.6921 64.6771C28.6822 66.3422 20.4601 66.3314 13.4569 64.7152C13.9303 66.5327 14.6649 68.2195 15.6226 69.7595C18.4957 70.2329 21.4994 70.4669 24.5739 70.4669C28.8237 70.4669 33.2149 70.0152 37.6117 69.1011Z" fill="#FDD700"/>
<path d="M18.3324 11.884C19.0562 11.0405 19.2357 9.81075 18.6807 8.77142C17.957 7.42194 16.281 6.91588 14.9315 7.63959C13.582 8.36331 13.076 10.0393 13.7997 11.3888C14.3384 12.3955 15.4158 12.9342 16.4823 12.8417L19.1051 17.9621C19.2902 18.3212 19.6547 18.528 20.0356 18.528C20.1934 18.528 20.3567 18.4899 20.509 18.4137C21.0205 18.1525 21.2273 17.5213 20.9607 17.0098L18.3324 11.884Z" fill="#4D98D3"/>
<path d="M31.0003 7.35725C31.0492 5.82819 29.8467 4.54944 28.3176 4.50047C26.7885 4.45149 25.5098 5.65406 25.4608 7.18312C25.4227 8.35848 26.1301 9.38148 27.1531 9.8168L27.0769 15.5739C27.0715 16.1507 27.5286 16.6241 28.1054 16.6295H28.1217C28.6931 16.6295 29.1556 16.1725 29.1665 15.6011L29.2427 9.84945C30.2439 9.45766 30.9676 8.49996 31.0057 7.35725" fill="#4D98D3"/>
<path d="M28.4808 40.213C27.904 40.3436 27.349 40.4143 26.8212 40.4143C25.7492 40.4143 24.7861 40.1368 23.9753 39.6035C22.838 38.8471 22.0272 37.5956 21.6518 35.974C21.5484 35.5278 21.8205 35.0871 22.2721 34.9782L31.7185 32.7636C32.1647 32.6547 32.6164 32.9377 32.7143 33.3839C33.5142 36.8011 31.8872 39.4185 28.4754 40.2184" fill="#281E1E"/>
<path d="M34.8202 31.0763C34.7821 31.0763 34.744 31.0763 34.7059 31.0655L32.4096 30.6519C32.1647 30.6084 31.9688 30.4234 31.909 30.1785C31.8545 29.9336 31.947 29.6833 32.1429 29.531L34.0203 28.1379C34.2978 27.9312 34.6896 27.991 34.8963 28.2685C35.1031 28.546 35.0433 28.9378 34.7657 29.1446L34.0529 29.6724L34.929 29.8302C35.2664 29.8901 35.4949 30.2166 35.435 30.5594C35.3806 30.8641 35.114 31.0763 34.8202 31.0763Z" fill="#281E1E"/>
<path d="M17.6904 33.5089C17.8972 34.3958 18.7896 34.9509 19.6765 34.7441C20.5689 34.5373 21.1185 33.6449 20.9117 32.7579C20.705 31.871 19.8126 31.316 18.9256 31.5227C18.0386 31.7295 17.4836 32.6219 17.6958 33.5089" fill="#281E1E"/>
<path d="M39.995 44.1953C39.391 44.0592 38.9829 43.7545 38.602 43.2485C38.1667 42.6717 38.0035 41.9371 38.0579 41.2242C38.1014 40.6529 38.5694 39.6353 38.5694 39.6353C38.5694 39.6353 39.0482 40.2992 39.859 39.8475C40.648 39.4068 40.8874 38.4001 40.5446 37.5675C40.1909 36.7132 39.4835 36.3051 38.7707 36.1256C37.6443 35.8426 36.4418 36.1528 35.5167 36.8602C32.3987 39.2544 32.3225 42.3234 32.4804 43.7328C31.4247 45.4686 28.6876 46.5623 27.6538 46.8398C21.7225 48.2383 18.4794 46.0726 18.2835 45.9366C17.0592 45.0387 15.3342 45.289 14.4201 46.5079C13.495 47.7377 13.7453 49.479 14.9696 50.404C15.1383 50.5292 18.3107 52.8581 23.8828 52.8581C25.4227 52.8581 27.1368 52.684 29.0304 52.2324C29.6399 52.0745 33.9822 50.8502 36.5669 47.569C37.345 47.6289 37.9273 47.5418 37.9273 47.5418C38.2755 47.4874 40.5229 47.6669 41.5132 47.1391C42.3784 46.6766 42.4002 44.734 39.9896 44.1898" fill="#4D98D3"/>
<path d="M58.5233 36.7135C57.8104 35.3586 56.129 34.8362 54.7686 35.5436C54.7469 35.5545 52.9294 36.4904 50.4481 37.0509C49.5176 35.8483 47.9287 34.5587 45.3168 34.2213C44.1632 34.0744 42.9661 34.4063 42.1335 35.2171C41.6057 35.734 41.1976 36.4414 41.3227 37.3556C41.4479 38.248 42.1607 38.9935 43.064 38.9826C43.9891 38.9663 44.0707 38.1555 44.0707 38.1555C44.0707 38.1555 44.9903 38.7976 45.3113 39.271C45.714 39.8587 45.9426 40.577 45.8609 41.2898C45.7848 41.921 45.5834 42.389 45.1318 42.808C43.3252 44.4894 44.3156 46.1599 45.295 46.1218C46.416 46.0837 48.2661 44.7996 48.598 44.669C48.598 44.669 50.2903 43.9997 51.2317 42.5631C54.7033 41.8448 57.2391 40.5225 57.3642 40.4518C58.7192 39.7335 59.2361 38.0576 58.5233 36.7026" fill="#4D98D3"/>
<path d="M44.506 40.5229C44.3265 39.8536 43.6354 39.4564 42.9661 39.6359C42.3458 39.8046 41.9649 40.4086 42.0574 41.0289C41.8234 40.4576 41.1922 40.1257 40.5718 40.2943C39.9025 40.4739 39.5053 41.165 39.6849 41.8343C40.0495 43.4667 42.8845 44.1088 42.8845 44.1088C42.9987 43.9891 45.0066 42.1172 44.506 40.5229Z" fill="#F55496"/>
<path d="M58.7954 28.3007C58.7954 26.641 58.1696 24.5134 55.1931 24.1652C53.4682 23.9638 50.9814 25.0467 51.1773 27.0056C50.976 25.0086 49.3 23.1258 47.0091 23.2782C44.2068 23.4632 42.4981 24.9487 42.1172 27.4573C41.6982 30.2106 43.0532 32.0063 45.1155 33.8401C47.0363 35.5433 45.1862 39.3088 45.1862 39.3088C45.3114 39.0585 46.7479 38.8408 46.9982 38.7647C48.3096 38.3511 49.5993 37.8668 50.8399 37.2682C53.479 35.9895 55.9005 34.4332 57.5928 31.8921C58.0172 31.2554 58.7899 29.3944 58.7899 28.3007" fill="#F55496"/>
<path d="M51.667 9.52833C50.6331 9.84394 49.6754 11.324 50.3937 12.3144C49.6591 11.3023 48.1681 10.8125 46.9819 11.6124C45.529 12.5864 45.0774 13.9251 45.6596 15.3943C46.2963 17.0104 47.5859 17.5545 49.2728 17.8919C50.8399 18.2075 51.0249 20.814 51.0249 20.814C51.014 20.6398 51.7214 20.0739 51.8303 19.9542C52.4071 19.323 52.9512 18.6537 53.4301 17.9463C54.4531 16.4281 55.2693 14.8338 55.3836 12.9347C55.4108 12.4559 55.0897 8.48901 51.6725 9.52833" fill="#FFA1D0"/>
<path d="M60.6999 21.5968C60.9938 21.2867 61.2495 20.7752 60.7543 20.1875C60.4659 19.8447 59.8075 19.6107 59.5028 20.0134C59.8184 19.6052 59.8347 18.9577 59.3776 18.5822C58.8172 18.1252 58.2349 18.1034 57.7234 18.5061C57.1629 18.9468 57.0976 19.5236 57.1629 20.231C57.2228 20.8894 56.2161 21.2703 56.2161 21.2703C56.2814 21.2431 56.5916 21.4554 56.6514 21.488C56.9725 21.6404 57.299 21.7764 57.6364 21.8852C58.3546 22.1083 59.0838 22.2444 59.851 22.0648C60.0415 22.0213 60.5149 21.809 60.7054 21.6023" fill="#FFCAE5"/>
</g>
</g>
<defs>
<clipPath id="clip0_508_43807">
<rect width="72.4643" height="75" fill="white" transform="translate(-4.5 4.5)"/>
</clipPath>
</defs>
</svg>
