<svg width="24" height="24" viewBox="0 0 24 24" fill="none" xmlns="http://www.w3.org/2000/svg">
<path d="M19.1429 8.51429C19.1429 6.78659 18.4204 5.12966 17.1344 3.90799C15.8485 2.68632 14.1043 2 12.2857 2C10.4671 2 8.72295 2.68632 7.43698 3.90799C6.15102 5.12966 5.42857 6.78659 5.42857 8.51429C5.42857 16.1143 2 18.2857 2 18.2857H22.5714C22.5714 18.2857 19.1429 16.1143 19.1429 8.51429Z" stroke="#4D545B" stroke-width="2" stroke-linecap="round" stroke-linejoin="round"/>
<path d="M14.8571 20.8571C14.5957 21.3785 14.2207 21.8113 13.7694 22.1121C13.3181 22.413 12.8064 22.5713 12.2856 22.5713C11.7648 22.5713 11.2532 22.413 10.8019 22.1121C10.3506 21.8113 9.97552 21.3785 9.7142 20.8571" stroke="#4D545B" stroke-width="2" stroke-linecap="round" stroke-linejoin="round"/>
</svg>
