<svg width="20" height="20" viewBox="0 0 20 20" fill="none" xmlns="http://www.w3.org/2000/svg">
<g id="vuesax/linear/message">
<g id="message">
<path id="Vector" d="M7.08317 16.0771H6.6665C3.33317 16.0771 1.6665 15.2437 1.6665 11.0771V6.9104C1.6665 3.57707 3.33317 1.9104 6.6665 1.9104H13.3332C16.6665 1.9104 18.3332 3.57707 18.3332 6.9104V11.0771C18.3332 14.4104 16.6665 16.0771 13.3332 16.0771H12.9165C12.6582 16.0771 12.4082 16.2021 12.2498 16.4104L10.9998 18.0771C10.4498 18.8104 9.54984 18.8104 8.99984 18.0771L7.74984 16.4104C7.6165 16.2271 7.30817 16.0771 7.08317 16.0771Z" fill="#4ABAF6"/>
<g id="SMS">
<path id="Vector_2" d="M14.4326 11.8691C13.8621 11.8691 13.2916 11.6544 12.8767 11.2746L13.3665 10.7131C13.672 10.9828 14.0753 11.1645 14.4499 11.1645C14.8936 11.1645 15.1299 10.9828 15.1299 10.6966C15.1299 10.3939 14.8706 10.3003 14.4902 10.1462L13.9197 9.91496C13.4875 9.74432 13.0554 9.41405 13.0554 8.81957C13.0554 8.15352 13.6662 7.6416 14.5306 7.6416C15.0262 7.6416 15.5218 7.82875 15.8675 8.16453L15.4353 8.67645C15.1645 8.46177 14.8821 8.34067 14.5306 8.34067C14.156 8.34067 13.9197 8.5003 13.9197 8.77003C13.9197 9.06176 14.2194 9.16635 14.5824 9.30396L15.1414 9.52965C15.6601 9.73332 16.0001 10.0471 16.0001 10.6361C16.0001 11.3021 15.418 11.8691 14.4326 11.8691Z" fill="white"/>
<path id="Vector_3" d="M8.06372 11.792V7.71313H9.00879L9.73489 9.6232C9.82709 9.87641 9.90776 10.1461 9.9942 10.4048H10.023C10.1152 10.1461 10.1901 9.87641 10.2823 9.6232L10.9911 7.71313H11.9362V11.792H11.1583V10.0911C11.1583 9.70577 11.2216 9.1388 11.2677 8.75349H11.2389L10.8932 9.71127L10.2362 11.4232H9.74641L9.08371 9.71127L8.74371 8.75349H8.72066C8.761 9.1388 8.83015 9.70577 8.83015 10.0911V11.792H8.06372Z" fill="white"/>
<path id="Vector_4" d="M5.55591 11.8691C4.98541 11.8691 4.41491 11.6544 4 11.2746L4.48982 10.7131C4.79524 10.9828 5.19863 11.1645 5.5732 11.1645C6.01692 11.1645 6.25319 10.9828 6.25319 10.6966C6.25319 10.3939 5.99387 10.3003 5.61354 10.1462L5.04304 9.91496C4.61084 9.74432 4.17864 9.41405 4.17864 8.81957C4.17864 8.15352 4.78948 7.6416 5.65388 7.6416C6.14946 7.6416 6.64505 7.82875 6.99081 8.16453L6.55861 8.67645C6.28777 8.46177 6.0054 8.34067 5.65388 8.34067C5.27931 8.34067 5.04304 8.5003 5.04304 8.77003C5.04304 9.06176 5.34269 9.16635 5.70574 9.30396L6.26472 9.52965C6.78335 9.73332 7.12335 10.0471 7.12335 10.6361C7.12335 11.3021 6.54132 11.8691 5.55591 11.8691Z" fill="white"/>
</g>
</g>
</g>
</svg>
