<svg width="40" height="40" viewBox="0 0 40 40" fill="none" xmlns="http://www.w3.org/2000/svg">
<mask id="mask0_504_42388" style="mask-type:alpha" maskUnits="userSpaceOnUse" x="0" y="0" width="40" height="40">
<circle cx="20" cy="20" r="20" fill="#D9D9D9"/>
</mask>
<g mask="url(#mask0_504_42388)">
<rect x="-4" y="-5" width="49.6552" height="48.5517" fill="#C2CCFE"/>
<path d="M17.0216 8.43406C17.0216 8.51899 16.9603 8.59449 16.8801 8.61808C15.3088 9.04274 15.0918 9.32585 14.7568 11.3878C14.7426 11.4822 14.6624 11.5482 14.568 11.5482C14.4737 11.5482 14.3934 11.4822 14.3793 11.3878C14.049 9.32585 13.8319 9.04274 12.2607 8.61808C12.1758 8.59449 12.1191 8.51899 12.1191 8.43406C12.1191 8.34913 12.1758 8.27363 12.2607 8.25004C13.8319 7.82538 14.049 7.54227 14.3793 5.4803C14.4123 5.29628 14.7285 5.29628 14.7568 5.4803C15.0918 7.54227 15.3088 7.82538 16.8801 8.25004C16.9603 8.27363 17.0216 8.34913 17.0216 8.43406Z" fill="#FDD700"/>
<path d="M11.442 12.4365C11.442 12.5214 11.3854 12.5969 11.3005 12.6205C9.72923 13.0452 9.51218 13.3283 9.18189 15.3903C9.16774 15.4846 9.08752 15.5507 8.99315 15.5507C8.89878 15.5507 8.81857 15.4846 8.80441 15.3903C8.4694 13.3283 8.25235 13.0452 6.6811 12.6205C6.60089 12.5969 6.53955 12.5214 6.53955 12.4365C6.53955 12.3516 6.60089 12.2761 6.6811 12.2525C8.25235 11.8278 8.4694 11.5447 8.80441 9.48274C8.83272 9.29872 9.14886 9.29872 9.18189 9.48274C9.51218 11.5447 9.72923 11.8278 11.3005 12.2525C11.3854 12.2761 11.442 12.3516 11.442 12.4365Z" fill="#FDD700"/>
<path d="M39.3983 4.95896C39.3983 5.04389 39.3416 5.11939 39.2567 5.14298C37.6854 5.56764 37.4684 5.85075 37.1381 7.91272C37.124 8.00709 37.0437 8.07315 36.9494 8.07315C36.855 8.07315 36.7748 8.00709 36.7606 7.91272C36.4303 5.85075 36.2086 5.56764 34.642 5.14298C34.5571 5.11939 34.5005 5.04389 34.5005 4.95896C34.5005 4.87403 34.5571 4.79853 34.642 4.77494C36.2086 4.35028 36.4303 4.06717 36.7606 2.0052C36.7889 1.82118 37.1098 1.82118 37.1381 2.0052C37.4684 4.06717 37.6854 4.35028 39.2567 4.77494C39.3416 4.79853 39.3983 4.87403 39.3983 4.95896Z" fill="#FDD700"/>
<path d="M51.8078 26.2956C52.7798 27.3809 53.3932 28.9568 52.7373 30.2591C52.0814 31.5614 50.1752 32.1371 49.0475 31.2123C49.793 32.5051 49.4061 34.3312 48.2029 35.2182C46.9997 36.1006 45.1453 35.9213 44.1356 34.8219C43.8336 36.1383 42.3708 36.9971 41.0355 36.8131C38.7282 36.5017 37.0767 33.4488 37.8458 31.2878C40.6486 23.4079 50.0572 24.3469 51.8078 26.2956Z" fill="#BCDFF7"/>
<path d="M7.17111 22.304C5.90656 23.0353 4.84018 24.3423 5.06667 25.7815C5.29316 27.2253 6.9399 28.3578 8.29882 27.8293C7.18998 28.8296 6.99652 30.684 7.87416 31.8966C8.75179 33.1092 10.5826 33.5103 11.8801 32.7789C11.7669 34.1237 12.8993 35.393 14.2299 35.6336C16.5325 36.0488 19.038 33.6613 18.9673 31.3681C18.703 23.007 9.43125 20.9922 7.16639 22.304" fill="#BCDFF7"/>
<path d="M44.7962 43.334L41.4178 35.7515C40.8374 33.4394 41.4084 32.0333 42.0878 28.5181C42.0878 28.5181 45.0935 16.8351 35.0951 11.6307C35.18 11.4703 35.2555 11.3004 35.3027 11.1116C35.5811 9.94619 34.8591 8.77601 33.6937 8.49762C32.5282 8.21923 31.358 8.93644 31.0797 10.1066C31.0797 10.1066 31.0797 10.1113 31.0797 10.1161C30.9145 10.0736 30.7541 10.0311 30.5842 9.98865C30.1077 9.87541 29.6358 9.77632 29.1828 9.70083C29.1828 9.68667 29.1923 9.67252 29.197 9.65836C29.4754 8.4929 28.7535 7.32272 27.588 7.04433C26.4225 6.76594 25.2523 7.48315 24.974 8.65333C24.9079 8.92228 24.9032 9.19595 24.9409 9.45547C14.414 10.1632 11.951 21.3318 11.951 21.3318C10.9696 24.7763 10.0259 29.7826 9.44549 32.0947C8.48293 35.9402 6.00573 40.017 4.60435 44.1881C3.70784 46.0896 3.2124 48.1516 3.2124 50.3079C3.2124 59.8959 12.9277 67.6672 24.9126 67.6672C36.8975 67.6672 46.6128 59.8959 46.6128 50.3079C46.6128 47.8307 45.9617 45.4762 44.7915 43.3435" fill="#819AC9"/>
<path d="M18.0285 19.8267C17.8539 20.5487 18.2314 21.2564 18.8731 21.4074C19.5101 21.5584 20.1659 21.1007 20.3405 20.3788C20.5151 19.6569 20.1376 18.9491 19.4959 18.7981C18.8589 18.6471 18.203 19.1095 18.0285 19.8267Z" fill="#281E1E"/>
<path d="M19.3355 19.3645C19.4535 19.5579 19.3496 19.8411 19.0996 19.9968C18.8495 20.1525 18.5475 20.1147 18.4295 19.9213C18.3069 19.7231 18.4154 19.4447 18.6655 19.289C18.9155 19.1333 19.2175 19.171 19.3355 19.3645Z" fill="white"/>
<path d="M19.7411 20.6381C19.8072 20.7419 19.7505 20.8976 19.6137 20.9778C19.4769 21.0627 19.3164 21.0439 19.2551 20.9353C19.1891 20.8315 19.2457 20.6758 19.3825 20.5956C19.5193 20.5107 19.6798 20.5296 19.7411 20.6381Z" fill="white"/>
<path d="M27.4655 22.0773C27.2909 22.7992 27.7391 23.5258 28.4611 23.6957C29.183 23.8656 29.9049 23.422 30.0795 22.7001C30.2541 21.9782 29.8058 21.2515 29.0839 21.0817C28.362 20.9071 27.6353 21.3553 27.4655 22.0773Z" fill="#281E1E"/>
<path d="M28.8428 21.634C28.9608 21.8275 28.857 22.1106 28.6069 22.2663C28.3568 22.422 28.0548 22.3843 27.9369 22.1908C27.8142 21.9926 27.9227 21.7142 28.1728 21.5585C28.4229 21.4028 28.7249 21.4406 28.8428 21.634Z" fill="white"/>
<path d="M29.2488 22.9076C29.3148 23.0114 29.2582 23.1671 29.1214 23.2473C28.9845 23.3323 28.8241 23.3134 28.758 23.2049C28.692 23.1011 28.7486 22.9454 28.8854 22.8651C29.0223 22.7802 29.1827 22.7991 29.244 22.9076" fill="white"/>
<path d="M27.4982 25.1206C27.1207 26.706 24.9313 27.5412 22.6051 26.9844C20.2836 26.4324 18.7077 24.696 19.0851 23.1106C19.4626 21.5252 21.652 20.69 23.9782 21.2468C26.2997 21.7988 27.8756 23.5352 27.4982 25.1206Z" fill="#F5F4F4"/>
<path d="M24.4829 22.9786C24.3697 23.4551 23.4921 23.9506 22.6003 23.7382C21.7132 23.5259 21.1517 22.686 21.265 22.2142C21.3782 21.7376 22.1426 21.7234 23.0297 21.9358C23.9167 22.1481 24.5915 22.5067 24.4782 22.9786" fill="#281E1E"/>
<path d="M14.6264 22.1149C14.4518 22.8369 15.1501 23.6248 16.1835 23.8749C17.2168 24.1203 18.1935 23.7381 18.3681 23.0115C18.5427 22.2895 17.8444 21.5015 16.811 21.2515C15.7777 21.0061 14.8009 21.3883 14.6264 22.1149Z" fill="#C697AF"/>
<path d="M31.976 26.2581C31.8014 26.98 30.8247 27.3669 29.7914 27.1215C28.758 26.8762 28.0597 26.0882 28.2343 25.3615C28.4089 24.6396 29.3856 24.2527 30.4189 24.4981C31.4523 24.7434 32.1506 25.5314 31.976 26.2533" fill="#C697AF"/>
<path d="M30.0981 37.2282L27.5171 33.293L29.8103 37.7142C29.9943 38.0728 30.0037 38.4644 29.8858 38.8089C30.2585 38.3936 30.3765 37.7755 30.0934 37.2282" fill="#DED9BB"/>
<path d="M28.0504 34.586C28.3335 34.9116 28.8856 35.1381 29.2064 35.4212C29.6783 35.8364 30.051 36.2281 30.3577 36.5914C30.4002 36.6386 30.4474 36.6811 30.4899 36.7282C30.2162 36.1667 29.9425 35.6807 29.8953 35.374L29.6122 33.8641C29.4707 33.1186 28.7582 32.6279 28.0127 32.7694H27.9844C27.5172 32.8638 27.1492 33.1799 26.9746 33.5857C27.3332 33.8547 27.6918 34.1803 28.0504 34.5908" fill="#5C6991"/>
<path d="M12.5834 31.9955C13.1213 31.4859 13.6498 31.1273 14.1641 30.8772C14.0981 30.8206 14.0226 30.764 13.9376 30.7215L13.914 30.7073C13.2535 30.3393 12.4183 30.5752 12.0503 31.2358L11.3 32.5806C11.2387 32.7033 11.1207 32.8448 10.9697 33.0005C11.0877 32.9061 11.2151 32.8118 11.3472 32.7174C11.6964 32.4673 12.2673 32.2975 12.5834 32.0002" fill="#5C6991"/>
<path d="M39.6438 33.6377C37.6951 33.062 35.6473 34.1756 35.0716 36.1243C34.6847 37.4407 33.7693 38.592 33.2409 38.71C33.0002 38.7619 32.0471 38.5071 30.4947 36.733C30.4522 36.6858 30.4098 36.6433 30.3626 36.5961C30.0606 36.2328 29.6831 35.8412 29.2113 35.426C28.8904 35.1428 28.3384 34.9164 28.0553 34.5908C27.7014 34.1803 27.3428 33.85 26.9842 33.5858C25.21 32.2646 23.4548 32.5949 22.4167 33.4867C20.5907 35.0579 21.4353 37.6295 22.6526 39.5216C23.3415 40.5927 23.9927 41.2249 25.2336 41.8855C28.2299 45.1743 31.0137 46.085 33.1748 46.085C33.7788 46.085 34.3308 46.0142 34.8263 45.9057C38.8039 45.0327 41.2528 41.2155 42.1399 38.2146C42.7155 36.2658 41.602 34.218 39.6533 33.6424" fill="#6C7BAA"/>
<path d="M18.3067 31.4625C17.429 30.5424 15.8955 30.047 14.1639 30.8822C13.6495 31.1322 13.1164 31.4908 12.5832 32.0004C12.2717 32.2977 11.6961 32.4676 11.3469 32.7176C11.2148 32.812 11.0874 32.9064 10.9695 33.0007C10.8373 33.1046 10.7099 33.2084 10.5873 33.3122C9.9597 33.5103 9.34158 33.6991 8.94995 33.7887C8.94523 33.7887 8.93579 33.784 8.93107 33.7793C9.12453 33.2131 9.30383 32.6469 9.44539 32.0901C9.64356 31.2974 9.8842 30.1933 10.1532 28.9429C5.98675 31.0756 4.00971 34.8221 3.76907 35.3034C3.75964 35.327 3.7502 35.3458 3.74076 35.3694C3.70773 35.4402 3.67471 35.5157 3.64168 35.5912C3.6228 35.6337 3.60865 35.6761 3.58977 35.7233C3.56618 35.7894 3.54259 35.8601 3.52371 35.9262C3.50956 35.9828 3.49069 36.0347 3.48125 36.0913C3.46709 36.148 3.45766 36.2046 3.4435 36.2612C3.42934 36.332 3.41991 36.398 3.41047 36.4688C3.40575 36.5113 3.40103 36.5538 3.39632 36.5962C3.38688 36.6812 3.38216 36.7661 3.37744 36.8463C3.37744 36.8746 3.37744 36.8982 3.37744 36.9265C3.37744 37.0256 3.37744 37.1247 3.38688 37.2238C3.38688 37.2332 3.38688 37.2474 3.38688 37.2568C3.48597 38.4836 4.18902 39.6302 5.34976 40.2389C6.47275 40.9372 7.51082 41.2156 8.59606 41.2156C10.0494 41.2156 11.5923 40.7249 13.5646 40.0926C13.9468 39.9699 14.2913 39.7906 14.5979 39.5689C14.6027 39.5689 14.6168 39.5594 14.6168 39.5594C15.9427 39.0215 16.6599 38.4553 17.4621 37.4455C18.8587 35.6856 19.9581 33.2084 18.3019 31.4672" fill="#6C7BAA"/>
</g>
</svg>
