<svg width="18" height="18" viewBox="0 0 18 18" fill="none" xmlns="http://www.w3.org/2000/svg">
<path id="Star 1" d="M8.14543 1.40616C8.53491 0.765286 9.46509 0.765286 9.85456 1.40616L12.0919 5.08756C12.2309 5.31639 12.456 5.47989 12.7166 5.54144L16.9092 6.53162C17.639 6.70399 17.9265 7.58864 17.4373 8.1571L14.6274 11.4225C14.4528 11.6255 14.3668 11.89 14.3888 12.1569L14.7427 16.4503C14.8043 17.1977 14.0518 17.7444 13.36 17.4549L9.3861 15.7916C9.13908 15.6882 8.86092 15.6882 8.61391 15.7916L4.64003 17.4549C3.94824 17.7444 3.19571 17.1977 3.25731 16.4503L3.61117 12.1569C3.63317 11.89 3.54721 11.6255 3.37255 11.4225L0.562698 8.1571C0.0735457 7.58864 0.360985 6.70399 1.09085 6.53162L5.28343 5.54144C5.54403 5.47989 5.76907 5.31639 5.90814 5.08756L8.14543 1.40616Z" fill="#219BF1"/>
</svg>
