<svg width="28" height="28" viewBox="0 0 28 28" fill="none" xmlns="http://www.w3.org/2000/svg">
<g id="Group 551">
<g id="Group 539">
<path id="Vector" d="M16.9393 9.19167V17.6583C16.9393 17.9917 16.8393 18.3167 16.656 18.5917L14.381 21.975C14.0227 22.5167 13.131 22.9 12.3727 22.6167C11.556 22.3417 11.0143 21.425 11.1893 20.6083L11.6227 17.8833C11.656 17.6333 11.5893 17.4083 11.4477 17.2333C11.306 17.075 11.0977 16.975 10.8727 16.975H7.44767C6.78934 16.975 6.22267 16.7083 5.88934 16.2417C5.57267 15.7917 5.51434 15.2083 5.72267 14.6167L7.77267 8.375C8.031 7.34167 9.156 6.5 10.2727 6.5H13.5227C14.081 6.5 14.8643 6.69167 15.2227 7.05L16.2893 7.875C16.6977 8.19167 16.9393 8.675 16.9393 9.19167Z" fill="#4D545B"/>
<path id="Vector_2" d="M19.589 19.2831H20.4474C21.739 19.2831 22.264 18.7831 22.264 17.5497V9.17474C22.264 7.94141 21.739 7.44141 20.4474 7.44141H19.589C18.2974 7.44141 17.7724 7.94141 17.7724 9.17474V17.5581C17.7724 18.7831 18.2974 19.2831 19.589 19.2831Z" fill="#4D545B"/>
</g>
</g>
</svg>
