<svg width="24" height="24" viewBox="0 0 24 24" fill="none" xmlns="http://www.w3.org/2000/svg">
<circle cx="12" cy="12" r="12" fill="#D6EEFA"/>
<path d="M10.8 6.73774C10.8 6.73774 12.7272 6.71833 14.4 8.4C14.4 8.4 13.6163 5.96463 11.9648 6.00344C11.9648 6.00344 10.9906 5.9068 10.8 6.73774Z" fill="#0089E4"/>
<path d="M14.8547 9.29665C14.8547 9.29665 12.8953 6.99143 10.2833 7.21526C10.2833 7.21526 8.15445 7.10334 8.42354 9.25216C8.42354 9.25216 11.1136 8.60316 12.4912 9.40902C12.4912 9.40902 8.53513 9.92364 8.75922 13.1246C8.75922 13.1246 8.69218 15.8105 12.1431 15.5867C12.1431 15.5867 15.8631 15.2734 15.4374 10.8189C15.4374 10.8189 16.1634 10.8859 16.737 11.2441C16.737 11.2441 17.3339 9.24712 14.8547 9.29665ZM12.7258 13.9525C10.776 14.557 10.821 12.9003 10.821 12.9003C10.9556 10.774 13.5776 10.7066 13.5776 10.7066C14.9222 13.0343 12.7263 13.952 12.7263 13.952L12.7258 13.9525Z" fill="#0089E4"/>
<path d="M12 19.2C12.6628 19.2 13.2 18.6628 13.2 18C13.2 17.3373 12.6628 16.8 12 16.8C11.3373 16.8 10.8 17.3373 10.8 18C10.8 18.6628 11.3373 19.2 12 19.2Z" fill="#0089E4"/>
</svg>
