<svg width="32" height="32" viewBox="0 0 32 32" fill="none" xmlns="http://www.w3.org/2000/svg">
<path d="M31.5 16C31.5 7.43959 24.5604 0.5 16 0.5C7.43959 0.5 0.5 7.43959 0.5 16C0.5 24.5604 7.43959 31.5 16 31.5C24.5604 31.5 31.5 24.5604 31.5 16Z" fill="white"/>
<path d="M31.5 16C31.5 7.43959 24.5604 0.5 16 0.5C7.43959 0.5 0.5 7.43959 0.5 16C0.5 24.5604 7.43959 31.5 16 31.5C24.5604 31.5 31.5 24.5604 31.5 16Z" stroke="#F5F5F5"/>
<path d="M12 14.5L17 19.5L22 14.5" stroke="#BEC7CD" stroke-width="2" stroke-linecap="round" stroke-linejoin="round"/>
</svg>
