<svg width="16" height="16" viewBox="0 0 16 16" fill="none" xmlns="http://www.w3.org/2000/svg">
<g id="20/20_Setting">
<path id="Vector" d="M13.1783 6.25957C12.0205 6.25957 11.5471 5.44078 12.1228 4.43648C12.4555 3.85437 12.2572 3.11234 11.6751 2.77971L10.5684 2.14642C10.0631 1.84577 9.41059 2.02488 9.10994 2.53023L9.03958 2.65177C8.46387 3.65607 7.51714 3.65607 6.93503 2.65177L6.86466 2.53023C6.57681 2.02488 5.92434 1.84577 5.41899 2.14642L4.31234 2.77971C3.73023 3.11234 3.53193 3.86077 3.86457 4.44288C4.44667 5.44078 3.97331 6.25957 2.81549 6.25957C2.15022 6.25957 1.6001 6.80329 1.6001 7.47496V8.6008C1.6001 9.26606 2.14383 9.81619 2.81549 9.81619C3.97331 9.81619 4.44667 10.635 3.86457 11.6393C3.53193 12.2214 3.73023 12.9634 4.31234 13.296L5.41899 13.9293C5.92434 14.23 6.57681 14.0509 6.87746 13.5455L6.94782 13.424C7.52354 12.4197 8.47026 12.4197 9.05237 13.424L9.12274 13.5455C9.42339 14.0509 10.0759 14.23 10.5812 13.9293L11.6879 13.296C12.27 12.9634 12.4683 12.215 12.1356 11.6393C11.5535 10.635 12.0269 9.81619 13.1847 9.81619C13.85 9.81619 14.4001 9.27246 14.4001 8.6008V7.47496C14.3937 6.80969 13.85 6.25957 13.1783 6.25957ZM7.9969 10.1168C6.85187 10.1168 5.91794 9.18291 5.91794 8.03788C5.91794 6.89285 6.85187 5.95892 7.9969 5.95892C9.14193 5.95892 10.0759 6.89285 10.0759 8.03788C10.0759 9.18291 9.14193 10.1168 7.9969 10.1168Z" fill="#7996B7"/>
</g>
</svg>
