<svg width="20" height="20" viewBox="0 0 20 20" fill="none" xmlns="http://www.w3.org/2000/svg">
<path d="M16.4728 7.82446C15.0255 7.82446 14.4338 6.80097 15.1534 5.5456C15.5692 4.81796 15.3213 3.89043 14.5937 3.47463L13.2104 2.68303C12.5787 2.30722 11.7631 2.53111 11.3873 3.16279L11.2993 3.31471C10.5797 4.57009 9.3963 4.57009 8.66867 3.31471L8.58071 3.16279C8.22089 2.53111 7.4053 2.30722 6.77361 2.68303L5.3903 3.47463C4.66267 3.89043 4.41479 4.82596 4.83058 5.55359C5.55822 6.80097 4.96652 7.82446 3.51924 7.82446C2.68766 7.82446 2 8.50412 2 9.3437V10.751C2 11.5826 2.67966 12.2702 3.51924 12.2702C4.96652 12.2702 5.55822 13.2937 4.83058 14.5491C4.41479 15.2767 4.66267 16.2043 5.3903 16.6201L6.77361 17.4117C7.4053 17.7875 8.22089 17.5636 8.5967 16.9319L8.68466 16.78C9.4043 15.5246 10.5877 15.5246 11.3153 16.78L11.4033 16.9319C11.7791 17.5636 12.5947 17.7875 13.2264 17.4117L14.6097 16.6201C15.3373 16.2043 15.5852 15.2687 15.1694 14.5491C14.4418 13.2937 15.0335 12.2702 16.4808 12.2702C17.3123 12.2702 18 11.5906 18 10.751V9.3437C17.992 8.51211 17.3123 7.82446 16.4728 7.82446ZM9.996 12.646C8.56472 12.646 7.3973 11.4786 7.3973 10.0473C7.3973 8.61606 8.56472 7.44865 9.996 7.44865C11.4273 7.44865 12.5947 8.61606 12.5947 10.0473C12.5947 11.4786 11.4273 12.646 9.996 12.646Z" fill="#BEC7CD"/>
</svg>
