<svg width="40" height="40" viewBox="0 0 40 40" fill="none" xmlns="http://www.w3.org/2000/svg">
<g clip-path="url(#clip0_310_8082)">
<path d="M5.866 14.2018C5.59938 14.8053 5.31034 15.3999 5.07106 16.0141C4.60257 17.2161 4.30575 18.4627 4.1449 19.7456C3.92708 21.4821 4.04691 23.225 4.01975 24.965C4.00418 25.9585 3.98196 26.9542 4.02469 27.946C4.10122 29.7245 4.90471 31.0878 6.44331 31.9993C7.22021 32.4596 8.06186 32.6371 8.95555 32.635C11.4057 32.6293 13.856 32.6518 16.3056 32.6194C16.8852 32.6117 17.2931 32.7493 17.6459 33.2285C18.3469 34.1809 19.2932 34.866 20.2922 35.4705C21.2815 36.0688 22.3349 36.5331 23.4238 36.9202C23.9225 37.0975 24.3334 36.9728 24.6819 36.6131C25.0269 36.2568 25.0831 35.8029 24.8418 35.3271C24.4998 34.6525 24.348 33.945 24.3906 33.1894C24.412 32.8081 24.574 32.6339 24.962 32.6337C27.4011 32.6325 29.8412 32.677 32.279 32.6194C34.2534 32.5726 35.7026 31.6082 36.56 29.794C36.8712 29.1354 36.9939 28.4401 36.992 27.7141C36.9869 25.7264 36.9945 23.7387 36.9892 21.7512C36.9823 19.2238 36.44 16.8225 35.2912 14.5667C35.2318 14.4499 35.1908 14.3237 35.1412 14.202C34.8433 13.7804 34.5865 13.3336 34.3406 12.88C33.8759 12.3271 33.4629 11.7341 32.9849 11.189C32.1897 10.2823 31.2871 9.50709 30.3173 8.80571C29.0643 7.89937 27.6983 7.20124 26.2423 6.69434C25.034 6.27371 23.7941 5.97942 22.5155 5.84564C21.6861 5.7588 20.8584 5.69906 20.0266 5.72559C17.8879 5.79411 15.8202 6.20825 13.8444 7.04894C12.178 7.75814 10.6596 8.69807 9.30079 9.90978C8.3357 10.7703 7.50221 11.7366 6.76216 12.7916C6.73785 12.8263 6.69873 12.8508 6.66644 12.88C6.41938 13.3327 6.16453 13.7806 5.86581 14.2018H5.866ZM20.5173 29.1865C16.9788 29.1865 13.4405 29.1886 9.90203 29.1856C8.47718 29.1843 7.44999 28.1523 7.44714 26.7215C7.44353 24.8882 7.43423 23.0545 7.45246 21.2214C7.46898 19.5675 7.83625 17.9867 8.53301 16.487C10.9241 11.341 16.6799 8.31332 22.4651 9.18741C24.7521 9.53285 26.8411 10.3947 28.6706 11.8248C31.8126 14.2808 33.5259 17.4821 33.5586 21.5256C33.5722 23.2263 33.5616 24.9274 33.5608 26.6282C33.5601 28.189 32.5621 29.1864 31.0006 29.1867C27.5061 29.1873 24.0117 29.1867 20.5173 29.1867V29.1865Z" fill="#4ABAF6"/>
<path d="M34.3407 12.8798C34.5867 13.3333 34.8434 13.7801 35.1414 14.2018C35.1433 12.4031 35.1474 10.6045 35.1438 8.80575C35.1435 8.59028 35.1645 8.46967 35.4228 8.39161C36.4842 8.07079 37.1392 7.0026 36.9751 5.93079C36.8032 4.80898 35.8573 3.99501 34.7308 3.99978C33.6259 4.00455 32.6901 4.82367 32.5218 5.93347C32.3595 7.00451 33.0184 8.06755 34.0756 8.39619C34.295 8.46432 34.358 8.54849 34.3555 8.77541C34.3407 10.1434 34.3438 11.5116 34.3407 12.8798Z" fill="#00538A"/>
<path d="M20.5173 29.1866C24.0117 29.1866 27.5061 29.187 31.0006 29.1866C32.5621 29.1864 33.5601 28.1891 33.5608 26.6281C33.5616 24.9273 33.5724 23.2264 33.5586 21.5255C33.5259 17.482 31.8126 14.2807 28.6706 11.8247C26.8413 10.3946 24.7521 9.53275 22.4651 9.18731C16.6797 8.31322 10.9241 11.3409 8.53302 16.4869C7.83607 17.9866 7.46879 19.5676 7.45246 21.2213C7.43423 23.0546 7.44373 24.8881 7.44715 26.7214C7.44999 28.1522 8.47718 29.1843 9.90203 29.1855C13.4405 29.1885 16.9788 29.1866 20.5173 29.1866Z" fill="#00538A"/>
<path d="M24 19.5159C24.0075 20.8869 25.1523 22.0125 26.5266 21.9999C27.8971 21.9873 29.0163 20.8391 28.9998 19.4623C28.9836 18.1106 27.8507 16.9973 26.494 17C25.1204 17.0027 23.9925 18.1405 24 19.5159Z" fill="#4ABAF6"/>
<path d="M14.4849 22C15.8583 22.007 16.9978 20.8763 17 19.5042C17.0022 18.1304 15.8683 16.9971 14.4941 17C13.1376 17.0027 12.0119 18.1196 12.0001 19.474C11.988 20.8488 13.1135 21.993 14.4849 22Z" fill="#4ABAF6"/>
</g>
<defs>
<clipPath id="clip0_310_8082">
<rect width="33" height="33" fill="white" transform="matrix(-1 0 0 1 37 4)"/>
</clipPath>
</defs>
</svg>
