<svg width="20" height="20" viewBox="0 0 20 20" fill="none" xmlns="http://www.w3.org/2000/svg">
<g id="document-normal">
<g id="vuesax/bold/document-normal">
<g id="Group">
<path id="Exclude" fill-rule="evenodd" clip-rule="evenodd" d="M17.2584 14.6083V6.76665C17.2584 5.34165 16.4584 4.09998 15.2834 3.47498C14.8667 3.25832 14.3667 3.54998 14.3667 4.01665C14.3667 5.34165 13.2834 6.42498 11.9584 6.42498H8.0417C6.7167 6.42498 5.63337 5.34165 5.63337 4.01665C5.63337 3.54998 5.12503 3.25832 4.7167 3.47498C3.5417 4.09998 2.7417 5.34165 2.7417 6.76665V14.6083C2.7417 16.6583 4.4167 18.3333 6.4667 18.3333H13.5334C15.5834 18.3333 17.2584 16.6583 17.2584 14.6083ZM8.70927 10.4528C9.01145 10.1695 9.48608 10.1849 9.76937 10.487C10.0527 10.7892 10.0374 11.2639 9.73518 11.5472L8.89659 12.3333H12C12.4142 12.3333 12.75 12.6691 12.75 13.0833C12.75 13.4975 12.4142 13.8333 12 13.8333H8.89659L9.73518 14.6195C10.0374 14.9028 10.0527 15.3774 9.76937 15.6796C9.48608 15.9818 9.01145 15.9971 8.70927 15.7138L6.48704 13.6305C6.33581 13.4887 6.25 13.2906 6.25 13.0833C6.25 12.876 6.33581 12.678 6.48704 12.5362L8.70927 10.4528Z" fill="#7F8896"/>
<path id="Vector" d="M11.9583 2.5H8.04167C7.17501 2.5 6.46667 3.07192 6.46667 3.78V4.42C6.46667 5.12809 7.16667 5.7 8.03334 5.7H11.9583C12.825 5.7 13.525 5.12809 13.525 4.42V3.78C13.5333 3.07192 12.825 2.5 11.9583 2.5Z" fill="#7F8896"/>
</g>
</g>
</g>
</svg>
