<svg width="40" height="40" viewBox="0 0 40 40" fill="none" xmlns="http://www.w3.org/2000/svg">
<g id="Group 543">
<g id="Group 138">
<g id="Group 139">
<g id="Group 132">
<path id="Icon" d="M30.2143 14.8828V27.0112C30.2143 27.6143 29.9453 28.1928 29.4664 28.6192C28.9875 29.0457 28.338 29.2853 27.6608 29.2853H12.3393C11.6621 29.2853 11.0126 29.0457 10.5337 28.6192C10.0548 28.1928 9.78577 27.6143 9.78577 27.0112V14.8828M11.0626 10.7139L28.9376 10.7141C29.6427 10.7141 30.2143 11.2232 30.2143 11.8512V14.1252C30.2143 14.7532 29.6427 15.2623 28.9376 15.2623L11.0626 15.262C10.3574 15.262 9.78577 14.753 9.78577 14.125V11.8509C9.78577 11.2229 10.3574 10.7139 11.0626 10.7139Z" stroke="#4D545B" stroke-width="2" stroke-linecap="round" stroke-linejoin="round"/>
<g id="Group 8">
<path id="Icon_2" d="M15.4336 24.3243L17.9872 22.1585L15.4336 19.9927M18.8384 25.0462H22.2431" stroke="#4D545B" stroke-width="2" stroke-linecap="round" stroke-linejoin="round"/>
</g>
</g>
</g>
</g>
</g>
</svg>
