<svg width="24" height="24" viewBox="0 0 24 24" fill="none" xmlns="http://www.w3.org/2000/svg">
<circle cx="12" cy="12" r="12" fill="#FFD6D6"/>
<path d="M7.20481 17.9976C6.68234 18.0064 6.30463 17.8321 6.09565 17.3967C5.87553 16.9383 6.06567 16.5375 6.35859 16.1915C7.0592 15.3641 8.00392 14.9207 8.94949 14.4916C9.21243 14.3721 9.38887 14.2208 9.52505 13.9624C10.1083 12.8563 10.492 11.6669 10.9194 10.4944C10.9965 10.2838 10.9109 10.1228 10.8449 9.9511C10.5357 9.14406 10.3199 8.3211 10.3464 7.44062C10.3721 6.59464 10.7267 6.04688 11.3049 6.00352C12.0072 5.95131 12.5528 6.48314 12.6487 7.34593C12.7626 8.368 12.5476 9.35202 12.2504 10.3148C12.1408 10.6688 12.1733 10.9395 12.3772 11.2413C12.7421 11.782 13.1206 12.3094 13.5437 12.8032C13.6885 12.9713 13.8307 13.0279 14.0576 12.9961C14.9295 12.8757 15.8049 12.804 16.6802 12.9793C17.0314 13.0501 17.3628 13.1695 17.6361 13.4182C17.9358 13.6898 18.0729 14.0128 17.9615 14.434C17.8399 14.8924 17.5239 15.1004 17.1068 15.1712C16.3659 15.2968 15.6764 15.0951 15.0118 14.7792C14.5732 14.5703 14.1621 14.3093 13.793 13.9898C13.6448 13.8615 13.5052 13.8243 13.3296 13.8686C12.5074 14.0757 11.68 14.2597 10.8757 14.5402C10.6591 14.6155 10.5263 14.7323 10.4072 14.9331C9.83853 15.8959 9.25012 16.8472 8.35765 17.5392C8.00135 17.8162 7.61593 18.025 7.20738 17.9976H7.20481ZM14.2366 13.5916C14.6092 13.9084 14.9458 14.1208 15.309 14.2703C15.6447 14.4093 15.9822 14.5854 16.365 14.5261C16.6357 14.4836 16.8575 14.3686 16.8652 14.0385C16.8729 13.719 16.6554 13.6173 16.4036 13.573C15.7021 13.45 15.0006 13.4642 14.2375 13.5916H14.2366ZM9.00859 15.1216C8.44844 15.3844 8.01677 15.6172 7.61421 15.9021C7.30074 16.1233 6.97955 16.3401 6.77999 16.6932C6.69005 16.8516 6.61811 17.0233 6.74316 17.1799C6.88533 17.3578 7.06691 17.3003 7.24335 17.2091C7.48831 17.0817 7.67931 16.8888 7.86602 16.6906C8.27971 16.2499 8.62316 15.7526 9.00944 15.1234L9.00859 15.1216ZM11.4111 9.48475C11.6415 8.63967 11.8102 7.86537 11.7614 7.06187C11.7502 6.87339 11.7194 6.62561 11.4427 6.62296C11.1815 6.6203 11.0719 6.80968 11.0342 7.04152C10.8989 7.87245 11.0847 8.65029 11.4102 9.48475H11.4111ZM11.0702 13.6598C11.71 13.481 12.2727 13.3244 12.8722 13.1571C12.5159 12.6704 12.187 12.2227 11.8393 11.7484C11.6449 12.4032 11.3562 12.9704 11.071 13.6598H11.0702Z" fill="#A82024"/>
</svg>
