<svg width="24" height="24" viewBox="0 0 24 24" fill="none" xmlns="http://www.w3.org/2000/svg">
<g id="hashtag">
<g id="vuesax/bold/hashtag">
<g id="Group">
<path id="Exclude" fill-rule="evenodd" clip-rule="evenodd" d="M7.80995 2H16.19C19.83 2 22 4.17 21.99 7.81V16.19C21.99 19.83 19.82 22 16.18 22H7.80995C4.16995 22 1.99995 19.83 1.99995 16.18V7.81C1.99995 4.17 4.16995 2 7.80995 2ZM10.2212 7.06499C10.2753 6.59955 10.6748 6.25566 11.1406 6.30453L11.1474 6.30524C11.6207 6.3658 11.9246 6.79801 11.8814 7.25038L11.8811 7.2536L11.6322 9.59667H13.0906L13.3609 7.06499C13.415 6.59955 13.8145 6.25566 14.2803 6.30453L14.2871 6.30524C14.7605 6.3658 15.0643 6.79801 15.0212 7.25038L15.0209 7.2536L14.772 9.59667H17.0682C17.5387 9.59667 17.9 9.99688 17.9 10.4546C17.9 10.9122 17.5387 11.3124 17.0682 11.3124H14.606L14.4371 12.8905H16.5583C17.0287 12.8905 17.3901 13.2907 17.3901 13.7483C17.3901 14.206 17.0287 14.6062 16.5583 14.6062H14.2564L13.9857 17.1416C13.9322 17.5567 13.5935 17.9 13.1563 17.9H13.0789L13.0599 17.8976C12.5866 17.837 12.2827 17.4049 12.3259 16.9525L12.3262 16.9493L12.5751 14.6062H11.1094L10.8387 17.1416C10.7852 17.5567 10.4465 17.9 10.0093 17.9H9.93188L9.91293 17.8976C9.43955 17.837 9.13572 17.4049 9.17884 16.9525L9.17915 16.9493L9.42804 14.6062H7.13179C6.66134 14.6062 6.3 14.206 6.3 13.7483C6.3 13.2907 6.66134 12.8905 7.13179 12.8905H9.60854L9.77744 11.3124H7.65629C7.18584 11.3124 6.82451 10.9122 6.82451 10.4546C6.82451 9.99688 7.18584 9.59667 7.65629 9.59667H9.95745L10.2212 7.06499ZM11.4517 11.3048L11.2828 12.8828H12.7483L12.9172 11.3048H11.4517Z" fill="#4D545B"/>
</g>
</g>
</g>
</svg>
