<svg width="24" height="24" viewBox="0 0 24 24" fill="none" xmlns="http://www.w3.org/2000/svg">
<g id="Group">
<path id="Vector" d="M16.5166 11.0113C16.7815 11.0113 17 10.782 17 10.5041C17 10.2262 16.7815 9.99698 16.5166 9.99698H14.1258L14.3841 7.56538C14.4106 7.28748 14.2252 7.03738 13.9536 7.00264C13.6887 6.97485 13.4503 7.16938 13.4172 7.45422L13.1457 9.99698H11.2715L11.5298 7.56538C11.5563 7.28748 11.3709 7.03738 11.0993 7.00264C10.8344 6.97485 10.596 7.16938 10.5629 7.45422L10.298 9.99698H7.96027C7.69536 9.99698 7.47682 10.2262 7.47682 10.5041C7.47682 10.782 7.69536 11.0113 7.96027 11.0113H10.1921L9.98013 12.9913H7.48344C7.21854 12.9913 7 13.2206 7 13.4985C7 13.7764 7.21854 14.0057 7.48344 14.0057H9.87417L9.61589 16.4373C9.5894 16.7152 9.77483 16.9653 10.0464 17C10.0662 17 10.0795 17 10.0993 17C10.3444 17 10.5497 16.8055 10.5828 16.5484L10.8543 14.0057H12.7351L12.4768 16.4373C12.4503 16.7152 12.6358 16.9653 12.9073 17C12.9272 17 12.9404 17 12.9603 17C13.2053 17 13.4106 16.8055 13.4437 16.5484L13.7152 14.0057H16.053C16.3179 14.0057 16.5364 13.7764 16.5364 13.4985C16.5364 13.2206 16.3179 12.9913 16.053 12.9913H13.8212L14.0331 11.0113H16.5166ZM12.8344 12.9844H10.9536L11.1656 11.0044H13.0464L12.8344 12.9844Z" fill="#7F8896" stroke="#7F8896" stroke-width="0.5"/>
<path id="Vector_2" d="M14.7907 22H9.2093C4.15814 22 2 19.8419 2 14.7907V9.2093C2 4.15814 4.15814 2 9.2093 2H14.7907C19.8419 2 22 4.15814 22 9.2093V14.7907C22 19.8419 19.8419 22 14.7907 22ZM9.2093 3.39535C4.92093 3.39535 3.39535 4.92093 3.39535 9.2093V14.7907C3.39535 19.0791 4.92093 20.6047 9.2093 20.6047H14.7907C19.0791 20.6047 20.6047 19.0791 20.6047 14.7907V9.2093C20.6047 4.92093 19.0791 3.39535 14.7907 3.39535H9.2093Z" fill="#7F8896"/>
</g>
</svg>
