<svg width="60" height="60" viewBox="0 0 60 60" fill="none" xmlns="http://www.w3.org/2000/svg">
<mask id="mask0_508_43886" style="mask-type:alpha" maskUnits="userSpaceOnUse" x="0" y="0" width="60" height="60">
<circle cx="30" cy="30" r="30" fill="#D9D9D9"/>
</mask>
<g mask="url(#mask0_508_43886)">
<rect x="-7.39117" y="-4.5" width="68.4783" height="66.9565" fill="#FBE8BF"/>
<g clip-path="url(#clip0_508_43886)">
<path d="M-2.9449 60.0052C12.405 59.9813 20.1188 48.0996 20.1188 48.0996C20.1188 48.0996 12.3751 36.2359 -2.98078 36.2598C-9.85745 36.2658 -15.006 41.5877 -15 48.1475C-14.988 54.7072 -9.82755 60.0172 -2.9449 60.0052Z" fill="#FAF6CE"/>
<path d="M50.0772 60.0052C34.7272 59.9813 27.0134 48.0996 27.0134 48.0996C27.0134 48.0996 34.7571 36.2359 50.113 36.2598C56.9957 36.2718 62.1442 41.5937 62.1323 48.1475C62.1203 54.7072 56.9598 60.0172 50.0772 60.0052Z" fill="#FAF6CE"/>
<path d="M37.0892 11.4921C37.4958 11.6296 37.9443 11.6774 38.4167 11.6057C39.5708 11.4263 40.5156 10.4815 40.695 9.32742C40.982 7.47371 39.4034 5.90105 37.5497 6.18209C36.3956 6.36148 35.4508 7.30628 35.2714 8.46036C35.1697 9.12411 35.3133 9.75796 35.6122 10.2782C34.6734 11.6834 33.6808 13.7225 33.4954 16.1981C34.1293 16.3954 34.7512 16.6286 35.3551 16.8917C35.385 14.6673 36.2521 12.7897 37.0892 11.4921Z" fill="#B26C1F"/>
<path d="M50.3104 59.9223C50.2087 60.1137 50.2446 60.2931 50.2625 60.323C51.7874 61.9973 51.6737 64.5925 49.9994 66.1233C49.7543 66.3446 49.4912 66.5239 49.2221 66.6794C49.234 66.4522 49.24 66.225 49.24 65.9917C49.24 65.9021 49.228 65.8064 49.228 65.7107C49.228 65.615 49.228 65.5313 49.228 65.4356C49.228 57.6441 48.7975 50.313 48.2354 44.3213C51.6917 46.6713 53.3421 49.3383 53.1507 52.2444C53.0909 53.53 52.5169 55.8442 50.3044 59.9223" fill="#C18B14"/>
<path d="M49.2281 65.7042C49.2281 65.6145 49.234 65.5248 49.234 65.4292C49.234 49.3079 47.3684 35.112 46.4116 30.7409V30.7528C44.7732 21.9746 37.0773 15.3252 27.8267 15.3252H26.8341H26.5829C16.5011 15.3252 8.26707 23.2184 7.71095 33.1567H7.69899C7.33423 44.4165 6.39542 47.8369 2.49067 51.8732C-1.42006 55.6763 -3.78204 60.5976 -3.78204 65.9793C-3.78204 78.0404 8.08768 87.8232 22.726 87.8232C37.3643 87.8232 49.234 78.0464 49.234 65.9793C49.234 65.8836 49.2281 65.7939 49.2281 65.6983" fill="#FDD700"/>
<path d="M47.0634 69.5614C38.7755 73.0595 28.7117 73.6814 18.7256 71.3075C10.2105 69.2804 2.66408 65.2082 -2.73559 59.9102C-3.41728 61.8416 -3.78204 63.8807 -3.78204 65.9855C-3.78204 66.1888 -3.77008 66.3922 -3.7641 66.5955C2.02425 71.3194 9.35538 74.9192 17.41 76.8327C21.8649 77.8911 26.2899 78.3934 30.5594 78.3934C36.1803 78.3934 41.5382 77.5204 46.3518 75.8879C47.7272 73.6635 48.654 71.2238 49.0367 68.6405C48.3969 68.9575 47.7451 69.2684 47.0634 69.5554" fill="#B26C1F"/>
<path d="M49.1383 59.2943C40.9282 62.7147 30.96 63.3007 21.0636 60.9447C13.9119 59.2404 7.44782 56.0951 2.37703 51.999C1.0017 53.3564 -0.182281 54.8573 -1.12708 56.4659C4.60148 61.0702 11.825 64.5863 19.7481 66.4699C24.203 67.5283 28.6279 68.0366 32.8975 68.0366C38.7456 68.0366 44.3008 67.0798 49.2579 65.3218C49.2759 64.2933 49.2938 62.1346 49.1443 59.2943" fill="#B26C1F"/>
<path d="M39.3496 41.2176C39.0865 40.3924 38.2074 39.944 37.3763 40.2071C34.0216 40.805 31.0617 41.6841 28.7117 42.9876L27.8865 41.2117C27.5217 40.4223 26.5769 40.0815 25.7876 40.4463L25.7577 40.4582C24.9684 40.829 24.6275 41.7678 24.9923 42.5571L25.7397 44.1656C25.8175 44.3151 25.8713 44.5364 25.9191 44.7995C25.3869 45.8878 24.7172 46.9283 24.0176 47.9029C23.007 49.3082 21.7692 50.2291 19.9454 49.8942C18.1156 49.5533 16.3636 48.2737 15.4606 46.6532C14.3604 44.6739 11.8608 43.9563 9.88156 45.0566C7.90228 46.1569 7.18471 48.6504 8.28498 50.6357C10.8563 55.2699 15.9031 58.3136 21.243 58.1581C25.2315 58.0386 29.0824 56.0712 31.552 52.9438C34.506 53.3624 37.0593 51.9632 37.735 49.8165C38.62 47 37.8008 44.8055 35.7737 44.0102C36.4913 43.5796 37.3464 43.3105 38.327 43.1909C39.1522 42.9278 39.6067 42.0428 39.3376 41.2176" fill="#C18B14"/>
<path d="M22.2536 9.91956C22.3792 9.60264 22.4509 9.26179 22.4509 8.90301C22.4509 7.38416 21.2191 6.15234 19.7002 6.15234C18.1814 6.15234 16.9496 7.38416 16.9496 8.90301C16.9496 10.4219 18.1814 11.6537 19.7002 11.6537C20.1607 11.6537 20.5852 11.5341 20.962 11.3368C21.9127 12.5387 22.8217 14.3804 22.4748 16.856C22.4031 17.3763 22.7619 17.8546 23.2761 17.9264C23.324 17.9324 23.3658 17.9383 23.4136 17.9383C23.8801 17.9383 24.2807 17.5975 24.3525 17.1251C24.8189 13.8303 23.5213 11.4264 22.2596 9.92554" fill="#B26C1F"/>
<path d="M38.9071 25.7892C38.5662 25.7892 38.2553 25.568 38.1536 25.2272C38.028 24.8086 38.2672 24.3721 38.6858 24.2465L41.1614 23.511C41.58 23.3854 42.0165 23.6246 42.1421 24.0432C42.2677 24.4617 42.0285 24.8983 41.6099 25.0238L39.1343 25.7593C39.0625 25.7833 38.9848 25.7892 38.9071 25.7892Z" fill="#B26C1F"/>
<path d="M28.1735 25.6705C28.1077 25.6705 28.0419 25.6645 27.9762 25.6465L25.088 24.911C24.6634 24.8034 24.4122 24.3729 24.5199 23.9543C24.6275 23.5297 25.0521 23.2786 25.4766 23.3862L28.3648 24.1217C28.7894 24.2293 29.0405 24.6599 28.9329 25.0844C28.8432 25.4432 28.5203 25.6764 28.1675 25.6764" fill="#B26C1F"/>
<path d="M41.562 27.1708C41.8849 27.1708 42.1421 26.9137 42.1421 26.5908C42.1421 26.2679 41.8849 26.0107 41.562 26.0107H38.632C38.3091 26.0107 38.0519 26.2679 38.0519 26.5908C38.0519 26.9137 38.3091 27.1708 38.632 27.1708H38.7097L38.7994 28.9886H38.7815C38.4586 28.9886 38.2014 29.2458 38.2014 29.5687C38.2014 29.8916 38.4586 30.1487 38.7815 30.1487H41.3767C41.6996 30.1487 41.9567 29.8856 41.9567 29.5687C41.9567 29.2517 41.6996 28.9886 41.3767 28.9886H41.3647L41.4783 27.1708H41.562Z" fill="#281E1E"/>
<path d="M40.2226 27.386C40.3242 27.6671 40.1389 28.0318 39.798 28.1993C39.4572 28.3667 39.1104 28.277 39.0027 27.9959C38.9011 27.7149 39.0865 27.3561 39.4213 27.1887C39.7562 27.0213 40.109 27.111 40.2166 27.392" fill="white"/>
<path d="M40.988 28.4029C41.0598 28.5943 40.9282 28.8395 40.701 28.9531C40.4738 29.0667 40.2346 29.0069 40.1628 28.8155C40.0911 28.6242 40.2226 28.379 40.4498 28.2654C40.6771 28.1518 40.9163 28.2116 40.988 28.4029Z" fill="white"/>
<path d="M28.7775 27.2186C29.1243 27.2186 29.4053 26.9376 29.4053 26.5908C29.4053 26.2439 29.1243 25.9629 28.7775 25.9629H25.363C25.0162 25.9629 24.7352 26.2439 24.7352 26.5908C24.7352 26.9376 25.0162 27.2186 25.363 27.2186H25.4527L25.5484 28.9408H25.5305C25.1836 28.9408 24.9026 29.2218 24.9026 29.5687C24.9026 29.9155 25.1836 30.1965 25.5305 30.1965H28.5562C28.903 30.1965 29.1841 29.9155 29.1841 29.5687C29.1841 29.2218 28.903 28.9408 28.5562 28.9408H28.5502L28.6758 27.2186H28.7775Z" fill="#281E1E"/>
<path d="M27.2168 27.386C27.3363 27.6671 27.1151 28.0318 26.7264 28.1993C26.3377 28.3667 25.9192 28.277 25.7996 27.9959C25.68 27.7149 25.9012 27.3561 26.2899 27.1887C26.6786 27.0213 27.0972 27.111 27.2168 27.392" fill="white"/>
<path d="M28.1018 28.4029C28.1855 28.5943 28.036 28.8395 27.7669 28.9531C27.5038 29.0667 27.2227 29.0069 27.139 28.8155C27.0553 28.6242 27.2048 28.379 27.4739 28.2654C27.737 28.1518 28.018 28.2116 28.1018 28.4029Z" fill="white"/>
<path d="M33.5194 34.771C32.3174 34.771 31.1275 34.5797 29.9674 34.191C29.5548 34.0535 29.3336 33.605 29.4711 33.1924C29.6086 32.7798 30.0571 32.5585 30.4697 32.6961C32.4669 33.3658 34.5598 33.3658 36.6886 32.6961C37.1012 32.5645 37.5497 32.7977 37.6753 33.2103C37.8068 33.6289 37.5736 34.0714 37.161 34.203C35.9352 34.5857 34.7213 34.783 33.5253 34.783" fill="#281E1E"/>
<path d="M33.7884 37.4981C33.328 37.4981 32.8735 37.4742 32.4131 37.4263C31.6596 37.3486 30.8942 37.2051 30.069 36.9838L29.9614 36.9539C29.3036 36.7805 28.5562 36.5772 27.9343 36.063C27.1629 35.4231 26.7025 34.4425 26.7025 33.4438C26.7025 32.4452 27.1749 31.4347 27.9702 30.7948C29.0884 29.8919 30.2125 30.0952 31.1992 30.2686L31.3965 30.3045C32.5685 30.5138 33.7645 30.5497 34.9425 30.4181C35.1996 30.3882 35.4627 30.3404 35.7318 30.2866C36.6527 30.1072 37.8008 29.8919 38.8592 30.5377C39.8638 31.1536 40.4917 32.2658 40.4917 33.4438C40.4917 34.5142 39.9774 35.5367 39.1163 36.1766C38.614 36.5533 38.034 36.8284 37.3463 37.0137C36.1923 37.3366 35.0023 37.4921 33.7884 37.4921M29.8956 31.6918C29.5428 31.6918 29.2618 31.7815 28.9628 32.0207C28.5382 32.3675 28.2811 32.8937 28.2811 33.4438C28.2811 33.994 28.5263 34.5082 28.9448 34.8491C29.3036 35.1481 29.8239 35.2856 30.374 35.4291L30.4816 35.459C31.2231 35.6563 31.9048 35.7879 32.5745 35.8537C34.0575 36.0032 35.5225 35.8776 36.9278 35.4949C37.4241 35.3574 37.8307 35.166 38.1775 34.9089C38.638 34.5621 38.919 34.0179 38.919 33.4379C38.919 32.804 38.5841 32.206 38.04 31.8772C37.5018 31.5483 36.8201 31.6798 36.0308 31.8293C35.7258 31.8891 35.4209 31.9429 35.1219 31.9788C33.7944 32.1283 32.449 32.0865 31.1274 31.8532L30.9241 31.8174C30.5056 31.7396 30.1767 31.6858 29.8956 31.6858" fill="#B26C1F"/>
<path d="M52.0923 24.1517C49.6347 24.8154 49.2161 25.3536 48.7078 28.5348C48.1936 25.3536 47.781 24.8154 45.3233 24.1517C47.781 23.4879 48.1995 22.9498 48.7078 19.7686C49.2221 22.9498 49.6347 23.4879 52.0923 24.1517Z" fill="#FDD700"/>
<path d="M52.0923 24.1517C49.6347 24.8154 49.2161 25.3536 48.7078 28.5348C48.1936 25.3536 47.781 24.8154 45.3233 24.1517C47.781 23.4879 48.1995 22.9498 48.7078 19.7686C49.2221 22.9498 49.6347 23.4879 52.0923 24.1517Z" stroke="#FDD700" stroke-width="0.95" stroke-linecap="round" stroke-linejoin="round"/>
</g>
</g>
<defs>
<clipPath id="clip0_508_43886">
<rect width="77.1263" height="94.3478" fill="white" transform="translate(-15 6.15234)"/>
</clipPath>
</defs>
</svg>
