<svg width="20" height="20" viewBox="0 0 20 20" fill="none" xmlns="http://www.w3.org/2000/svg">
<g id="vuesax/linear/profile">
<g id="profile">
<path id="Vector" d="M10.1334 9.05841C10.05 9.05008 9.95005 9.05008 9.85838 9.05841C7.87505 8.99175 6.30005 7.36675 6.30005 5.36675C6.30005 3.32508 7.95005 1.66675 10 1.66675C12.0417 1.66675 13.7001 3.32508 13.7001 5.36675C13.6917 7.36675 12.1167 8.99175 10.1334 9.05841Z" fill="#FFDA60"/>
<path id="Vector_2" d="M4.8629 12.1142C2.37903 13.4294 2.37903 15.5726 4.8629 16.8797C7.68548 18.3734 12.3145 18.3734 15.1371 16.8797C17.621 15.5645 17.621 13.4213 15.1371 12.1142C12.3248 10.6286 7.69575 10.6286 4.8629 12.1142Z" fill="#FFDA60"/>
</g>
</g>
</svg>
