<svg width="24" height="24" viewBox="0 0 24 24" fill="none" xmlns="http://www.w3.org/2000/svg">
<path fill-rule="evenodd" clip-rule="evenodd" d="M12 0.5C12.8284 0.5 13.5 1.17157 13.5 2V6C13.5 6.82843 12.8284 7.5 12 7.5C11.1716 7.5 10.5 6.82843 10.5 6V2C10.5 1.17157 11.1716 0.5 12 0.5ZM3.86934 3.86934C4.45513 3.28355 5.40487 3.28355 5.99066 3.86934L8.82066 6.69934C9.40645 7.28513 9.40645 8.23487 8.82066 8.82066C8.23487 9.40645 7.28513 9.40645 6.69934 8.82066L3.86934 5.99066C3.28355 5.40487 3.28355 4.45513 3.86934 3.86934ZM20.1307 3.86934C20.7164 4.45513 20.7164 5.40487 20.1307 5.99066L17.3007 8.82066C16.7149 9.40645 15.7651 9.40645 15.1793 8.82066C14.5936 8.23487 14.5936 7.28513 15.1793 6.69934L18.0093 3.86934C18.5951 3.28355 19.5449 3.28355 20.1307 3.86934ZM0.5 12C0.5 11.1716 1.17157 10.5 2 10.5H6C6.82843 10.5 7.5 11.1716 7.5 12C7.5 12.8284 6.82843 13.5 6 13.5H2C1.17157 13.5 0.5 12.8284 0.5 12ZM16.5 12C16.5 11.1716 17.1716 10.5 18 10.5H22C22.8284 10.5 23.5 11.1716 23.5 12C23.5 12.8284 22.8284 13.5 22 13.5H18C17.1716 13.5 16.5 12.8284 16.5 12ZM8.82066 15.1793C9.40645 15.7651 9.40645 16.7149 8.82066 17.3007L5.99066 20.1307C5.40487 20.7164 4.45513 20.7164 3.86934 20.1307C3.28355 19.5449 3.28355 18.5951 3.86934 18.0093L6.69934 15.1793C7.28513 14.5936 8.23487 14.5936 8.82066 15.1793ZM15.1793 15.1793C15.7651 14.5936 16.7149 14.5936 17.3007 15.1793L20.1307 18.0093C20.7164 18.5951 20.7164 19.5449 20.1307 20.1307C19.5449 20.7164 18.5951 20.7164 18.0093 20.1307L15.1793 17.3007C14.5936 16.7149 14.5936 15.7651 15.1793 15.1793ZM12 16.5C12.8284 16.5 13.5 17.1716 13.5 18V22C13.5 22.8284 12.8284 23.5 12 23.5C11.1716 23.5 10.5 22.8284 10.5 22V18C10.5 17.1716 11.1716 16.5 12 16.5Z" fill="#0075C2"/>
</svg>
