<svg width="24" height="24" viewBox="0 0 24 24" fill="none" xmlns="http://www.w3.org/2000/svg">
<g id="24/24_Search">
<g id="Union">
<path fill-rule="evenodd" clip-rule="evenodd" d="M1.25 11.5C1.25 17.15 5.85 21.75 11.5 21.75C17.15 21.75 21.75 17.15 21.75 11.5C21.75 5.85 17.15 1.25 11.5 1.25C5.85 1.25 1.25 5.85 1.25 11.5ZM2.75 11.5C2.75 6.68 6.67 2.75 11.5 2.75C16.33 2.75 20.25 6.68 20.25 11.5C20.25 16.32 16.33 20.25 11.5 20.25C6.67 20.25 2.75 16.32 2.75 11.5ZM21.47 23.0775C21.62 23.2275 21.81 23.2975 22 23.2975C22.19 23.2975 22.38 23.2275 22.53 23.0775C22.82 22.7875 22.82 22.3075 22.53 22.0175L20.53 20.0175C20.24 19.7275 19.76 19.7275 19.47 20.0175C19.18 20.3075 19.18 20.7875 19.47 21.0775L21.47 23.0775Z" fill="#7996B7"/>
<path d="M22.53 23.0775L22.8836 23.431L22.8836 23.431L22.53 23.0775ZM19.47 20.0175L19.8236 20.371L19.8236 20.371L19.47 20.0175ZM11.5 21.25C6.12614 21.25 1.75 16.8739 1.75 11.5H0.75C0.75 17.4261 5.57386 22.25 11.5 22.25V21.25ZM21.25 11.5C21.25 16.8739 16.8739 21.25 11.5 21.25V22.25C17.4261 22.25 22.25 17.4261 22.25 11.5H21.25ZM11.5 1.75C16.8739 1.75 21.25 6.12614 21.25 11.5H22.25C22.25 5.57386 17.4261 0.75 11.5 0.75V1.75ZM1.75 11.5C1.75 6.12614 6.12614 1.75 11.5 1.75V0.75C5.57386 0.75 0.75 5.57386 0.75 11.5H1.75ZM11.5 2.25C6.39349 2.25 2.25 6.40423 2.25 11.5H3.25C3.25 6.95577 6.94651 3.25 11.5 3.25V2.25ZM20.75 11.5C20.75 6.40423 16.6065 2.25 11.5 2.25V3.25C16.0535 3.25 19.75 6.95577 19.75 11.5H20.75ZM11.5 20.75C16.6065 20.75 20.75 16.5958 20.75 11.5H19.75C19.75 16.0442 16.0535 19.75 11.5 19.75V20.75ZM2.25 11.5C2.25 16.5958 6.39349 20.75 11.5 20.75V19.75C6.94651 19.75 3.25 16.0442 3.25 11.5H2.25ZM22 22.7975C21.9355 22.7975 21.8748 22.7752 21.8236 22.7239L21.1164 23.431C21.3652 23.6798 21.6846 23.7975 22 23.7975V22.7975ZM22.1765 22.7239C22.1252 22.7752 22.0646 22.7975 22 22.7975V23.7975C22.3155 23.7975 22.6348 23.6798 22.8836 23.431L22.1765 22.7239ZM22.1765 22.371C22.2712 22.4658 22.2712 22.6292 22.1765 22.7239L22.8836 23.431C23.3688 22.9458 23.3688 22.1492 22.8836 21.6639L22.1765 22.371ZM20.1765 20.371L22.1765 22.371L22.8836 21.6639L20.8836 19.6639L20.1765 20.371ZM19.8236 20.371C19.9183 20.2763 20.0817 20.2763 20.1765 20.371L20.8836 19.6639C20.3983 19.1787 19.6017 19.1787 19.1164 19.6639L19.8236 20.371ZM19.8236 20.7239C19.7288 20.6292 19.7288 20.4658 19.8236 20.371L19.1165 19.6639C18.6312 20.1492 18.6312 20.9458 19.1164 21.431L19.8236 20.7239ZM21.8236 22.7239L19.8236 20.7239L19.1164 21.431L21.1164 23.431L21.8236 22.7239Z" fill="#7996B7"/>
</g>
</g>
</svg>
