<svg width="23" height="21" viewBox="0 0 23 21" fill="none" xmlns="http://www.w3.org/2000/svg">
<g id="Group 248">
<path id="Icon" d="M1 4.05351V8.38684M1 8.38684H5.30127M1 8.38684L5.86248 3.78462C7.31113 2.32768 9.19166 1.38343 11.2207 1.09416C13.2497 0.804893 15.3174 1.18628 17.112 2.18085C18.9066 3.17542 20.331 4.72929 21.1705 6.6083C22.01 8.48731 22.2192 10.5897 21.7665 12.5986C21.3138 14.6074 20.2237 16.414 18.6606 17.7461" stroke="#4D545B" stroke-width="2" stroke-linecap="round" stroke-linejoin="round"/>
<path id="Icon_2" d="M4.59085 15.5581C4.76664 15.9072 4.96295 16.2436 5.17823 16.5658" stroke="#4D545B" stroke-width="2" stroke-linecap="round" stroke-linejoin="round"/>
<path id="Icon_3" d="M7.56803 18.6494C8.23888 19.0794 8.9563 19.4207 9.70245 19.6686" stroke="#4D545B" stroke-width="2" stroke-linecap="round" stroke-linejoin="round"/>
<path id="Icon_4" d="M12.9566 19.9168C14.0518 19.8344 15.1163 19.5641 16.1057 19.1245" stroke="#4D545B" stroke-width="2" stroke-linecap="round" stroke-linejoin="round"/>
<path id="Vector 8" d="M12 6V12L15.5 9.5" stroke="#4D545B" stroke-width="2" stroke-linecap="round" stroke-linejoin="round"/>
</g>
</svg>
