<svg width="40" height="40" viewBox="0 0 40 40" fill="none" xmlns="http://www.w3.org/2000/svg">
<path fill-rule="evenodd" clip-rule="evenodd" d="M20.9526 31.5652C21.2043 31.5652 21.43 31.4101 21.5203 31.175C22.6693 28.1856 25.7495 26.4061 28.9112 26.905C29.1598 26.9443 29.4069 26.8262 29.5328 26.6081L30.4853 24.9571C30.6112 24.739 30.5898 24.4658 30.4315 24.27C28.4189 21.7796 28.4189 18.2204 30.4315 15.73C30.5898 15.5342 30.6112 15.261 30.4853 15.0429L29.5328 13.3919C29.4069 13.1738 29.1598 13.0557 28.9112 13.095C25.7495 13.5939 22.6693 11.8144 21.5203 8.82497C21.43 8.5899 21.2043 8.43478 20.9526 8.43478L19.0474 8.43478C18.7957 8.43478 18.57 8.5899 18.4797 8.82497C17.3307 11.8144 14.2505 13.5939 11.0888 13.095C10.8402 13.0557 10.5931 13.1738 10.4672 13.3919L9.51466 15.0429C9.38882 15.261 9.41021 15.5342 9.56848 15.73C11.5811 18.2204 11.5811 21.7796 9.56848 24.27C9.41021 24.4658 9.38882 24.739 9.51466 24.9571L7.4075 26.1745C6.77827 25.0839 6.88523 23.7182 7.67656 22.739C8.96758 21.1415 8.96758 18.8585 7.67656 17.261C6.88523 16.2818 6.77826 14.9161 7.40749 13.8255L8.36007 12.1745C8.9893 11.0839 10.2248 10.4937 11.4679 10.6899C13.4959 11.01 15.4717 9.86848 16.2087 7.95094C16.6605 6.77557 17.789 6 19.0474 6L20.9526 6C22.211 6 23.3395 6.77557 23.7913 7.95093C24.5283 9.86847 26.5041 11.01 28.5321 10.6899C29.7752 10.4937 31.0107 11.0839 31.6399 12.1745L32.5925 13.8255C33.2217 14.9161 33.1148 16.2818 32.3234 17.261C31.0324 18.8585 31.0324 21.1415 32.3234 22.739C33.1148 23.7182 33.2217 25.0839 32.5925 26.1745L31.6399 27.8255C31.0107 28.9161 29.7752 29.5063 28.5321 29.3101C26.5041 28.99 24.5283 30.1315 23.7913 32.0491C23.3395 33.2244 22.211 34 20.9526 34H19.0474C17.789 34 16.6605 33.2244 16.2087 32.0491C15.4717 30.1315 13.4959 28.99 11.4679 29.3101C10.2248 29.5063 8.98931 28.9161 8.36008 27.8255L7.4075 26.1745L9.51466 24.9571L10.4672 26.6081C10.5931 26.8262 10.8402 26.9443 11.0888 26.905C14.2505 26.4061 17.3307 28.1856 18.4797 31.175C18.57 31.4101 18.7957 31.5652 19.0474 31.5652H20.9526ZM14.5254 20C14.5254 16.9744 16.9765 14.5217 20 14.5217C23.0235 14.5217 25.4746 16.9744 25.4746 20C25.4746 23.0256 23.0235 25.4783 20 25.4783C16.9765 25.4783 14.5254 23.0256 14.5254 20ZM16.9586 20C16.9586 18.3191 18.3203 16.9565 20 16.9565C21.6797 16.9565 23.0414 18.3191 23.0414 20C23.0414 21.6809 21.6797 23.0435 20 23.0435C18.3203 23.0435 16.9586 21.6809 16.9586 20Z" fill="#BEC7CD"/>
</svg>
