<svg width="60" height="60" viewBox="0 0 60 60" fill="none" xmlns="http://www.w3.org/2000/svg">
<mask id="mask0_508_43918" style="mask-type:alpha" maskUnits="userSpaceOnUse" x="0" y="0" width="60" height="60">
<circle cx="30" cy="30" r="30" fill="#D9D9D9"/>
</mask>
<g mask="url(#mask0_508_43918)">
<rect x="-6" y="-7.5" width="74.4828" height="72.8276" fill="#EFD5BB"/>
<g clip-path="url(#clip0_508_43918)">
<path d="M72.1089 48.6478C71.8044 47.9547 71.321 47.5606 70.7655 47.154C70.5272 46.9837 70.32 46.7172 70.2009 46.418C70.1031 46.1594 70.0694 45.8927 70.0661 45.5246L70.0641 45.5086C70.6794 39.6644 70.4053 36.171 66.9078 34.1857C63.4803 32.2403 58.5804 31.5489 55.6966 31.8867C56.2567 32.7155 56.7867 33.4776 57.2793 34.2011C59.5492 37.534 62.3804 40.3353 64.9675 43.563C65.3731 44.0699 65.7753 44.5935 66.1683 45.1291C67.2313 46.4198 68.0991 47.8817 68.7011 49.5126C68.9047 50.0505 69.0722 50.6037 69.2071 51.1557C69.4077 51.927 69.5336 52.7077 69.6055 53.4899C69.7895 53.4449 69.9708 53.3786 70.1454 53.3023C70.3513 53.2166 70.5439 53.111 70.7238 52.9907C72.1941 52.0188 72.7702 50.19 72.1143 48.6471" fill="#896954"/>
<path d="M68.6958 49.5132C68.0891 47.8882 67.2213 46.4264 66.1576 45.1303C63.2813 41.2021 59.9028 38.0582 57.274 34.2016C55.7568 31.9765 53.8248 29.3866 52.1444 25.5293C52.1444 25.5293 45.4804 7.72965 29.7989 14.5158C14.1175 21.302 22.5343 38.3487 22.5343 38.3487C24.1941 42.2141 24.7651 45.399 25.3467 48.0243C26.3627 52.5835 26.345 57.1977 27.238 61.984C27.4479 63.6428 27.9252 65.2733 28.6965 66.8286C33.0293 75.5856 44.9913 78.6783 55.5911 74.0906C66.1855 69.5036 72.1196 58.6669 68.7011 49.5125" fill="#AB856A"/>
<path d="M57.415 30.006C57.4156 29.9679 57.4282 29.9392 57.4288 29.9012C57.4856 28.2519 56.384 26.5704 56.384 26.5704C56.384 26.5704 54.7834 27.7973 54.289 29.3719C53.9333 30.5008 54.2841 31.4319 54.8603 31.8738C52.784 34.2664 48.407 38.5218 41.4913 41.5161C34.0052 44.7559 27.4658 44.8139 24.5806 44.6263C24.6498 44.9589 24.7183 45.2863 24.7748 45.6043C24.9247 46.4036 37.6811 51.3631 44.253 48.5208C49.9924 46.0386 54.9625 35.893 55.8062 32.9247C56.3512 33.4194 57.3598 33.5952 58.4125 33.0067C59.8498 32.2016 60.7153 30.3904 60.7153 30.3904C60.7153 30.3904 58.971 29.7115 57.4103 30.012" fill="#DD5426"/>
<path d="M29.8551 29.9054C30.1844 30.6658 31.0685 31.0146 31.8236 30.686C32.584 30.3567 32.9328 29.4726 32.6035 28.7121C32.2742 27.9517 31.3901 27.603 30.635 27.9316C29.8746 28.2608 29.5258 29.145 29.8544 29.9001" fill="#281E1E"/>
<path d="M41.2247 29.8161C42.1904 32.0514 41.1634 34.6418 38.9341 35.6122C36.6989 36.5779 34.1085 35.5509 33.1381 33.3216C32.1723 31.0864 33.704 29.6569 35.9332 28.6865C38.1685 27.7208 40.2596 27.5862 41.2247 29.8161Z" fill="#E9BB97"/>
<path d="M35.2926 30.1335C34.6348 30.4173 34.4681 31.2838 34.9803 31.7772C35.6849 32.463 36.511 32.353 37.3641 31.9849C38.2118 31.6175 38.8599 31.0857 38.839 30.1074C38.8246 29.3939 38.083 28.9295 37.4252 29.2133L35.2926 30.1335Z" fill="#281E1E"/>
<path d="M37.0655 23.8012C36.7454 23.8417 36.4257 23.6708 36.2946 23.3623C36.1333 22.9871 36.306 22.5533 36.6812 22.392L39.2044 21.3032C39.5742 21.1425 40.0133 21.3146 40.1746 21.6898C40.3359 22.065 40.1632 22.4987 39.788 22.66L37.2655 23.7543C37.1988 23.7844 37.1302 23.7985 37.0662 23.8066" fill="#281E1E"/>
<path d="M28.6902 27.4243C28.3702 27.4648 28.0505 27.2939 27.9193 26.9853C27.758 26.6101 27.9308 26.1764 28.306 26.0151L30.8291 24.9262C31.199 24.7656 31.6381 24.9376 31.7994 25.3128C31.9607 25.6881 31.7879 26.1218 31.4127 26.2831L28.8902 27.3773C28.8236 27.4074 28.7549 27.4215 28.6909 27.4296" fill="#281E1E"/>
<path d="M40.9431 26.6492C40.9431 26.6492 40.8951 26.6553 40.8684 26.6587L38.663 26.6614C38.4303 26.6637 38.212 26.5233 38.1189 26.3021C38.0266 26.0862 38.0702 25.8313 38.2333 25.6644L39.742 24.0535C39.9664 23.8138 40.3392 23.8045 40.5789 24.0289C40.8187 24.2533 40.8279 24.6261 40.6036 24.8658L40.031 25.4802L40.8713 25.4823C41.1967 25.4844 41.4632 25.7488 41.461 26.0742C41.4615 26.3777 41.2378 26.6228 40.9444 26.6599" fill="#281E1E"/>
<path d="M29.1353 31.0267L26.3153 30.755L28.8154 28.5418C29.5513 27.8904 29.6156 26.7713 28.9696 26.0347C28.3183 25.2988 27.1991 25.2345 26.4625 25.8805L24.1083 27.9614C21.0155 25.4913 17.1643 27.6913 15.8714 30.879C15.8714 30.879 14.9885 32.6382 14.8289 34.2897C14.8004 34.3638 14.7665 34.4385 14.7439 34.5172L12.9501 40.684C12.6497 41.8221 12.4438 42.7641 12.6455 43.8441C12.8963 45.1835 13.603 46.3568 14.68 47.2448C14.7167 47.2781 14.7588 47.3107 14.7955 47.344C14.8817 47.4252 14.9792 47.5104 15.094 47.6043C15.1174 47.6176 15.1361 47.6369 15.1548 47.6562C15.6082 48.027 16.2691 48.4961 17.2075 49.0169C19.5772 50.4404 21.8619 51.3218 25.0611 51.8491C25.0611 51.8491 25.5247 51.9151 26.0075 51.919C25.8421 50.6122 25.6394 49.3101 25.3507 48.0134C25.0821 46.8335 24.8194 45.5281 24.4591 44.0942C23.0514 43.7195 21.3299 43.1353 20.9064 41.8015C20.9044 41.7855 20.9023 41.7695 20.8943 41.7489C20.8259 41.4649 20.8143 41.3308 20.8731 40.9386L21.9391 36.815C22.1181 36.5593 22.3058 36.2862 22.492 35.9592C22.7461 35.526 24.8982 35.1452 25.7791 34.2696L28.7966 34.5598C28.934 34.5749 29.0633 34.5694 29.1914 34.5532C29.9968 34.4512 30.652 33.8047 30.7354 32.9649C30.8286 31.9885 30.1178 31.1246 29.1406 31.0261" fill="#866853"/>
<path d="M20.1425 35.5079C19.9025 35.5383 19.6808 35.3712 19.6444 35.1266C19.6093 34.8492 19.3115 32.4102 20.4222 31.3375C20.7166 31.0509 21.2463 30.74 22.0927 30.8768C22.1368 30.882 23.6923 31.0971 24.0706 33.8294C24.1016 34.0747 23.9346 34.2964 23.6892 34.3274L23.6839 34.3281C23.4438 34.3585 23.2222 34.1915 23.1911 33.9461C22.916 31.9432 21.9981 31.7559 21.9587 31.7446C21.5545 31.6765 21.2605 31.7517 21.0434 31.9634C20.3722 32.612 20.4435 34.3751 20.5279 34.9985C20.5589 35.2439 20.3919 35.4655 20.1465 35.4966L20.1425 35.5079Z" fill="#5E3A1A"/>
</g>
</g>
<defs>
<clipPath id="clip0_508_43918">
<rect width="58.5242" height="76.1379" fill="white" transform="translate(9.15894 16.3369) rotate(-7.21261)"/>
</clipPath>
</defs>
</svg>
