<svg width="21" height="20" viewBox="0 0 21 20" fill="none" xmlns="http://www.w3.org/2000/svg">
<g id="24/24_menu_ico_black">
<g id="Group 248">
<path id="Icon" d="M1.83331 4.21134V7.82244M1.83331 7.82244H5.4177M1.83331 7.82244L5.88538 3.98726C7.09259 2.77314 8.6597 1.98627 10.3506 1.74521C12.0414 1.50416 13.7644 1.82198 15.26 2.65079C16.7555 3.4796 17.9425 4.77449 18.6421 6.34033C19.3417 7.90617 19.516 9.65813 19.1387 11.3322C18.7615 13.0063 17.8531 14.5118 16.5505 15.6218" stroke="#4D545B" stroke-width="1.8" stroke-linecap="round" stroke-linejoin="round"/>
<path id="Icon_2" d="M4.82571 13.7984C4.9722 14.0893 5.13579 14.3697 5.31519 14.6382" stroke="#4D545B" stroke-width="1.8" stroke-linecap="round" stroke-linejoin="round"/>
<path id="Icon_3" d="M7.30669 16.3747C7.86573 16.733 8.46359 17.0174 9.08538 17.224" stroke="#4D545B" stroke-width="1.8" stroke-linecap="round" stroke-linejoin="round"/>
<path id="Icon_4" d="M11.7972 17.4308C12.7098 17.3621 13.5969 17.1368 14.4214 16.7705" stroke="#4D545B" stroke-width="1.8" stroke-linecap="round" stroke-linejoin="round"/>
<path id="Vector 8" d="M11 5.8335V10.8335L13.9167 8.75016" stroke="#4D545B" stroke-width="1.8" stroke-linecap="round" stroke-linejoin="round"/>
</g>
</g>
</svg>
