<svg width="20" height="20" viewBox="0 0 20 20" fill="none" xmlns="http://www.w3.org/2000/svg">
<g id="hashtag">
<g id="vuesax/bold/hashtag">
<g id="Group">
<path id="Exclude" fill-rule="evenodd" clip-rule="evenodd" d="M6.50829 1.66675H13.4916C16.525 1.66675 18.3333 3.47508 18.325 6.50841V13.4917C18.325 16.5251 16.5166 18.3334 13.4833 18.3334H6.50829C3.47496 18.3334 1.66663 16.5251 1.66663 13.4834V6.50841C1.66663 3.47508 3.47496 1.66675 6.50829 1.66675ZM8.51768 5.88758C8.56277 5.49971 8.89562 5.21313 9.28381 5.25386L9.28946 5.25445C9.68394 5.30492 9.93712 5.66509 9.90119 6.04206L9.90093 6.04475L9.69352 7.99731H10.9088L11.1341 5.88757C11.1792 5.49971 11.5121 5.21313 11.9003 5.25386L11.9059 5.25445C12.3004 5.30492 12.5536 5.66509 12.5176 6.04206L12.5174 6.04475L12.31 7.99731H14.2235C14.6156 7.99731 14.9167 8.33082 14.9167 8.71221C14.9167 9.0936 14.6156 9.42711 14.2235 9.42711H12.1717L12.0309 10.7421H13.7986C14.1906 10.7421 14.4917 11.0756 14.4917 11.457C14.4917 11.8384 14.1906 12.1719 13.7986 12.1719H11.8804L11.6547 14.2847C11.6102 14.6307 11.3279 14.9167 10.9636 14.9167H10.8991L10.8833 14.9147C10.4888 14.8643 10.2356 14.5041 10.2715 14.1272L10.2718 14.1245L10.4792 12.1719H9.25784L9.03223 14.2847C8.98767 14.6307 8.7054 14.9167 8.34106 14.9167H8.27657L8.26077 14.9147C7.86629 14.8643 7.6131 14.5041 7.64903 14.1272L7.64929 14.1245L7.8567 12.1719H5.94316C5.55111 12.1719 5.25 11.8384 5.25 11.457C5.25 11.0756 5.55111 10.7421 5.94316 10.7421H8.00712L8.14786 9.42711H6.38024C5.9882 9.42711 5.68709 9.0936 5.68709 8.71221C5.68709 8.33082 5.9882 7.99731 6.38024 7.99731H8.29787L8.51768 5.88758ZM9.5431 9.42074L9.40236 10.7358H10.6236L10.7643 9.42074H9.5431Z" fill="#7F8896"/>
</g>
</g>
</g>
</svg>
