<svg width="28" height="28" viewBox="0 0 28 28" fill="none" xmlns="http://www.w3.org/2000/svg">
<g id="vuesax/bold/setting-4">
<g id="Group">
<g id="Group_2">
<path id="Vector" d="M18.19 4H9.81C6.17 4 4 6.17 4 9.81V18.18C4 21.83 6.17 24 9.81 24H18.18C21.82 24 23.99 21.83 23.99 18.19V9.81C24 6.17 21.83 4 18.19 4ZM13.61 13.84C13.61 16.92 12.94 17.61 11.15 18.67C11.03 18.74 10.9 18.77 10.77 18.77C10.51 18.77 10.26 18.64 10.12 18.4C9.91 18.04 10.03 17.58 10.38 17.37C11.59 16.65 12.01 16.39 12.09 14.58H10.19C9.1 14.58 8.25 13.73 8.25 12.64V11.16C8.25 10.07 9.1 9.22 10.19 9.22H11.68C12.75 9.22 13.62 10.09 13.62 11.16V13.84H13.61ZM19.75 13.84C19.75 16.92 19.08 17.61 17.29 18.67C17.17 18.74 17.04 18.77 16.91 18.77C16.65 18.77 16.4 18.64 16.26 18.4C16.05 18.04 16.17 17.58 16.52 17.37C17.73 16.65 18.15 16.39 18.23 14.58H16.32C15.23 14.58 14.38 13.73 14.38 12.64V11.16C14.38 10.07 15.23 9.22 16.32 9.22H17.81C18.88 9.22 19.75 10.09 19.75 11.16V13.84Z" fill="#BEC7CD"/>
</g>
</g>
</g>
</svg>
