<svg width="20" height="20" viewBox="0 0 20 20" fill="none" xmlns="http://www.w3.org/2000/svg">
<circle cx="10" cy="10" r="10" fill="#D6EEFA"/>
<path d="M9 5.61478C9 5.61478 10.606 5.59861 12 7C12 7 11.3469 4.97052 9.97059 5.00287C9.97059 5.00287 9.15875 4.92234 9 5.61478Z" fill="#0089E4"/>
<path d="M12.3789 7.74725C12.3789 7.74725 10.746 5.82623 8.56941 6.01275C8.56941 6.01275 6.79535 5.91949 7.0196 7.71017C7.0196 7.71017 9.26127 7.16934 10.4093 7.84089C10.4093 7.84089 7.11259 8.26974 7.29933 10.9372C7.29933 10.9372 7.24346 13.1755 10.1192 12.989C10.1192 12.989 13.2192 12.7279 12.8645 9.01582C12.8645 9.01582 13.4695 9.07163 13.9474 9.37014C13.9474 9.37014 14.4449 7.70597 12.3789 7.74725ZM10.6048 11.6271C8.98001 12.1309 9.01751 10.7503 9.01751 10.7503C9.12964 8.97837 11.3147 8.92218 11.3147 8.92218C12.4351 10.8619 10.6052 11.6267 10.6052 11.6267L10.6048 11.6271Z" fill="#0089E4"/>
<path d="M10 16C10.5523 16 11 15.5523 11 15C11 14.4477 10.5523 14 10 14C9.44772 14 9 14.4477 9 15C9 15.5523 9.44772 16 10 16Z" fill="#0089E4"/>
</svg>
