<svg width="20" height="20" viewBox="0 0 20 20" fill="none" xmlns="http://www.w3.org/2000/svg">
<g id="20/20_file_icons">
<circle id="Ellipse 6" cx="10" cy="10" r="10" fill="#FFD6D6"/>
<path id="Vector" d="M6.00401 14.998C5.56862 15.0054 5.25386 14.8601 5.0797 14.4973C4.89627 14.1153 5.05472 13.7812 5.29882 13.4929C5.88267 12.8034 6.66993 12.434 7.45791 12.0763C7.67703 11.9768 7.82406 11.8507 7.93755 11.6353C8.42361 10.7135 8.74337 9.72245 9.09953 8.74536C9.16376 8.56986 9.09239 8.43565 9.03743 8.29258C8.77977 7.62005 8.5999 6.93425 8.62203 6.20051C8.64344 5.49554 8.93893 5.03907 9.42071 5.00294C10.006 4.95943 10.4606 5.40262 10.5406 6.12161C10.6355 6.97333 10.4564 7.79335 10.2087 8.59567C10.1173 8.89064 10.1445 9.11629 10.3143 9.36775C10.6184 9.81832 10.9339 10.2578 11.2864 10.6693C11.4071 10.8094 11.5256 10.8566 11.7147 10.8301C12.4413 10.7298 13.1707 10.67 13.9002 10.8161C14.1928 10.875 14.469 10.9746 14.6967 11.1818C14.9465 11.4082 15.0607 11.6774 14.9679 12.0284C14.8666 12.4104 14.6032 12.5837 14.2556 12.6426C13.6382 12.7474 13.0637 12.5792 12.5098 12.316C12.1444 12.1419 11.8018 11.9244 11.4941 11.6582C11.3707 11.5513 11.2543 11.5203 11.108 11.5572C10.4228 11.7297 9.73333 11.8831 9.06312 12.1169C8.88255 12.1795 8.77192 12.2769 8.6727 12.4443C8.19878 13.2466 7.70843 14.0393 6.96471 14.616C6.66779 14.8468 6.3466 15.0208 6.00615 14.998H6.00401ZM11.8639 11.3263C12.1743 11.5903 12.4548 11.7673 12.7575 11.892C13.0373 12.0077 13.3185 12.1545 13.6375 12.1051C13.8631 12.0697 14.0479 11.9738 14.0544 11.6987C14.0608 11.4325 13.8795 11.3477 13.6696 11.3109C13.0851 11.2084 12.5005 11.2202 11.8646 11.3263H11.8639ZM7.50716 12.6014C7.04037 12.8204 6.68064 13.0143 6.34518 13.2518C6.08395 13.4361 5.81629 13.6168 5.64999 13.911C5.57504 14.043 5.51509 14.1861 5.6193 14.3166C5.73778 14.4648 5.88909 14.4169 6.03612 14.3409C6.24026 14.2347 6.39942 14.074 6.55502 13.9088C6.89976 13.5416 7.18597 13.1271 7.50787 12.6028L7.50716 12.6014ZM9.50922 7.90396C9.70121 7.19972 9.84182 6.55448 9.80114 5.8849C9.79186 5.72782 9.76616 5.52135 9.53562 5.51913C9.31793 5.51692 9.22657 5.67473 9.19517 5.86793C9.0824 6.56038 9.23728 7.20857 9.5085 7.90396H9.50922ZM9.22514 11.3831C9.75831 11.2342 10.2272 11.1036 10.7269 10.9643C10.4299 10.5587 10.1559 10.1856 9.86609 9.79029C9.70407 10.336 9.46354 10.8087 9.22586 11.3831H9.22514Z" fill="#A82024"/>
</g>
</svg>
