<svg width="40" height="40" viewBox="0 0 40 40" fill="none" xmlns="http://www.w3.org/2000/svg">
<g id="Group 28">
<circle id="Ellipse 11" cx="20" cy="20" r="20" fill="white"/>
<g id="Group 89">
<path id="Union" fill-rule="evenodd" clip-rule="evenodd" d="M10.9268 12.2684C10.3656 11.0843 11.5148 9.77352 12.643 10.3108L28.26 17.7489C28.3454 17.7896 28.4233 17.8367 28.4937 17.8891L31.4567 19.2866C31.961 19.5245 31.9372 20.2057 31.5775 20.5023C31.5188 20.5861 31.4381 20.6586 31.3332 20.712L28.4143 22.1996C28.3455 22.2541 28.2691 22.3036 28.185 22.3469L12.8029 30.2593C11.6917 30.8309 10.5029 29.5559 11.0276 28.3552L14.0352 21.4717C14.2309 21.0239 14.6335 20.7259 15.0945 20.6875L15.1696 20.6813L23.9261 19.9531L15.2698 18.7724L15.1945 18.7685C14.7326 18.7443 14.3211 18.4587 14.1118 18.0171L10.9268 12.2684Z" fill="#219BF1"/>
</g>
</g>
</svg>
