<svg width="16" height="16" viewBox="0 0 16 16" fill="none" xmlns="http://www.w3.org/2000/svg">
<g id="Group 19">
<circle id="Ellipse 5" cx="8" cy="8" r="8" fill="#9CC9DD"/>
<path id="Icon" d="M7.55129 5.65165L8.41942 4.78416C8.60943 4.59429 8.83069 4.44603 9.07056 4.34785C9.31043 4.24966 9.56422 4.20347 9.81743 4.21192C10.0706 4.22036 10.3183 4.28327 10.5463 4.39706C10.7743 4.51085 10.9782 4.67328 11.1463 4.87509C11.3144 5.0769 11.4434 5.31413 11.526 5.57324C11.6086 5.83234 11.6431 6.10825 11.6276 6.38521C11.6121 6.66217 11.5469 6.93475 11.4357 7.18739C11.3245 7.44004 11.1694 7.66779 10.9794 7.85766L10.1113 8.72515M8.37502 10.4601L7.50689 11.3276C7.31688 11.5175 7.09563 11.6658 6.85575 11.7639C6.61588 11.8621 6.3621 11.9083 6.10888 11.8999C5.59749 11.8828 5.11948 11.6443 4.78 11.2367C4.44052 10.8291 4.26739 10.2859 4.29869 9.72658C4.32999 9.16724 4.56315 8.63759 4.94689 8.25413L5.81502 7.38664M6.80564 9.21255L9.12067 6.89924" stroke="white" stroke-linecap="round" stroke-linejoin="round"/>
</g>
</svg>
